<?xml version="1.0" encoding="UTF-8"?> <!-- Generator: Adobe Illustrator 23.1.1, SVG Export Plug-In . SVG Version: 6.00 Build 0) --> <svg xmlns="http://www.w3.org/2000/svg" xmlns:xlink="http://www.w3.org/1999/xlink" version="1.1" id="Layer_1" x="0px" y="0px" viewBox="0 0 229.6 44.2" xml:space="preserve"> <path fill="#8E8F8E" d="M48.9,16.3c0,9.2-7.1,16.4-17.4,16.4h-9.9c2-1.3,3.7-3.1,4.9-5.2h5.1c6.9,0,11.3-4.6,11.3-11.1 c0-6.4-4.5-11.2-11.3-11.2h-6.4V10c-0.9-1.2-2-2.2-3.3-3.1c-0.8-0.5-1.6-1-2.4-1.4V0h12.2C41.8,0,48.9,7.1,48.9,16.3 M52.2,32.9h5.7 V8.2h-5.7V32.9z M78.8,20.7c-0.7-0.5-1.5-1-2.5-1.4c-0.9-0.4-1.8-0.7-2.7-1c-0.7-0.2-1.4-0.5-2.1-0.7c-0.7-0.2-1.3-0.5-1.8-0.7 c-0.5-0.3-0.9-0.6-1.2-0.9c-0.3-0.3-0.5-0.7-0.5-1.1v-0.1c0-0.7,0.3-1.3,0.9-1.8c0.6-0.5,1.5-0.7,2.5-0.7c1,0,2.1,0.2,3.4,0.6 c1.2,0.4,2.4,1,3.6,1.7l2.2-4C79.4,9.7,78,9,76.4,8.5c-1.6-0.5-3.2-0.7-4.7-0.7c-1.2,0-2.4,0.2-3.4,0.5c-1.1,0.3-2,0.8-2.8,1.5 c-0.8,0.7-1.4,1.4-1.9,2.4c-0.5,0.9-0.7,2-0.7,3.2v0.1c0,1.2,0.2,2.2,0.7,3c0.5,0.8,1.1,1.5,1.8,2c0.7,0.5,1.6,1,2.5,1.3 c0.9,0.3,1.8,0.6,2.7,0.9c0.7,0.2,1.4,0.4,2.1,0.6c0.7,0.2,1.3,0.4,1.8,0.7c0.5,0.3,0.9,0.6,1.2,0.9c0.3,0.3,0.4,0.7,0.4,1.2v0.1 c0,0.8-0.3,1.5-1,1.9c-0.7,0.5-1.6,0.7-2.8,0.7c-1.3,0-2.6-0.3-4-0.8c-1.4-0.5-2.8-1.3-4.1-2.3l-2.5,3.8c1.6,1.2,3.2,2.1,5.1,2.8 c1.8,0.6,3.6,0.9,5.4,0.9c1.3,0,2.5-0.2,3.6-0.5c1.1-0.3,2.1-0.8,2.9-1.4c0.8-0.6,1.5-1.4,1.9-2.4c0.5-1,0.7-2.1,0.7-3.4v-0.1 c0-1.1-0.2-2.1-0.7-2.9C80.1,21.9,79.5,21.2,78.8,20.7z M133.4,15.5c0.7,1.5,1,3.2,1,5v0.1c0,1.7-0.3,3.4-1,5 c-0.7,1.6-1.6,2.9-2.8,4.1c-1.2,1.2-2.6,2.1-4.2,2.8c-1.6,0.7-3.4,1-5.3,1c-1.9,0-3.6-0.3-5.2-1c-1.6-0.7-3-1.6-4.2-2.7 c-1.2-1.2-2.1-2.5-2.7-4.1c-0.7-1.6-1-3.2-1-5v-0.1c0-1.8,0.3-3.4,1-5c0.7-1.6,1.6-2.9,2.8-4.1c1.2-1.2,2.6-2.1,4.2-2.8 c1.6-0.7,3.4-1,5.3-1c1.9,0,3.7,0.3,5.3,1c1.6,0.7,3,1.6,4.2,2.8C131.8,12.6,132.7,14,133.4,15.5z M128.7,20.6 c0-1.1-0.2-2.1-0.6-3.1c-0.4-1-0.9-1.8-1.6-2.5c-0.7-0.7-1.5-1.3-2.4-1.7c-0.9-0.4-1.9-0.6-3.1-0.6c-1.1,0-2.1,0.2-3.1,0.6 c-0.9,0.4-1.7,1-2.4,1.7c-0.7,0.7-1.2,1.5-1.5,2.5c-0.3,1-0.5,2-0.5,3.1v0.1c0,1.1,0.2,2.1,0.6,3c0.4,1,0.9,1.8,1.6,2.5 c0.7,0.7,1.5,1.3,2.4,1.7c0.9,0.4,1.9,0.6,3,0.6c1.2,0,2.2-0.2,3.1-0.6c0.9-0.4,1.7-1,2.4-1.7c0.7-0.7,1.2-1.5,1.5-2.5 C128.5,22.8,128.7,21.7,128.7,20.6L128.7,20.6z M147.3,26.3l-6.6-18.1h-6.1l10.1,24.9h5.1l10.1-24.9H154L147.3,26.3z M183.6,15.9 c0.5,1.6,0.7,3.3,0.7,5.1c0,0.2,0,0.5,0,0.8c0,0.3,0,0.5-0.1,0.8h-18.1c0.3,2,1.1,3.6,2.4,4.6c1.3,1.1,2.9,1.6,4.7,1.6 c1.4,0,2.6-0.3,3.6-0.7c1-0.5,2-1.2,3-2.2l3.3,2.9c-1.2,1.4-2.6,2.5-4.2,3.4c-1.6,0.8-3.6,1.3-5.9,1.3c-1.8,0-3.4-0.3-5-0.9 c-1.5-0.6-2.9-1.5-4-2.6c-1.1-1.1-2-2.5-2.7-4c-0.7-1.6-1-3.3-1-5.2v-0.1c0-1.8,0.3-3.4,0.9-5c0.6-1.6,1.4-2.9,2.5-4.1 c1.1-1.2,2.3-2.1,3.8-2.8c1.5-0.7,3.1-1,4.9-1c2,0,3.7,0.4,5.2,1.1c1.5,0.7,2.7,1.7,3.7,2.9C182.3,12.9,183.1,14.3,183.6,15.9z M178.7,18.2c-0.1-0.9-0.3-1.2-0.6-2c-0.3-0.8-0.7-1.5-1.3-2.1c-0.5-0.6-1.2-1.1-1.9-1.4c-0.7-0.3-1.6-0.5-2.5-0.5 c-1.7,0-3.2,0.6-4.3,1.8c-1.1,1.2-1.8,2.2-2.1,4.1H178.7z M96.9,28.5c-4.3,0-7.4-3.5-7.4-8c0-4.3,3-7.9,7.1-7.9 c2.8,0,4.7,1.3,6.4,3.1l3.5-3.8c-2.3-2.5-5.2-4.2-9.9-4.2c-7.4,0-12.8,5.9-12.8,12.9c0,7.1,5.4,12.8,12.8,12.8 c4.8,0,7.7-1.9,10.1-4.6l-3.4-3.4C101.5,27.3,99.5,28.5,96.9,28.5z M194.2,12.3V8.2h-5.7v24.7h5.7v-9.4c0-1.6,0.2-3.1,0.6-4.3 c1.7-4.5,6.4-5.8,8.9-6.1l-1.9-4.7C199.8,8.7,196.3,9.6,194.2,12.3z M223.7,8.2l-6.3,18.1l-5.9-18.1h-6l9.2,24.5l-0.1,0.2 c0,0-1.8,5-3.5,6.2c-1.3,0.7-4.3,0.6-5.4,0.5v4.6c2,0,6.7,0.1,8.2-0.8c1.9-1.2,2.3-1.7,3.6-4.3c1.4-2.9,12.2-30.9,12.2-30.9H223.7z"></path> <path fill="#8E8F8E" d="M13,6.9c-7.2,0-13,5.8-13,13c0,7.2,5.8,13,13,13c7.2,0,13-5.8,13-13C25.9,12.8,20.1,6.9,13,6.9 M20.4,14.2 L20.4,14.2L20.4,14.2c-0.1,0.1-0.1,0.1-0.2,0.1c-0.4,0-1.1-0.3-1.2-0.6l0-0.1l0-0.1c0,0,0.1,0,0.2-0.1C19.5,13.5,20.3,14,20.4,14.2z M17.5,11.2c0.1,0.1,0,0.2,0.1,0.2c0.1,0.1,0.3,0.1,0.4,0.2c0-0.1,0.1-0.1,0.1-0.2l0.1-0.1l0.2,0c0.1,0,0.1,0,0.2,0 c0.2,0,0.4,0.1,0.5,0.3c0,0,0,0.1-0.1,0.1c0,0,0,0-0.1,0c0,0-0.1,0-0.1,0c0,0,0-0.1,0-0.1c0,0,0,0,0,0c-0.1,0-0.1,0.1-0.2,0.1 c-0.1,0-0.1,0-0.2,0c0,0-0.1,0-0.1,0c0,0,0,0,0,0c0,0,0,0.1,0,0.1c-0.2,0-0.4,0.2-0.5,0.2c0,0-0.1,0-0.1,0c0,0,0,0,0,0 c0-0.1,0-0.1,0-0.1c0,0,0,0,0,0c0,0-0.1,0-0.1,0c0,0-0.1,0-0.1,0c-0.2,0-0.4-0.1-0.5-0.3l0,0c0.1,0,0.2,0,0.2,0 C17.4,11.3,17.4,11.3,17.5,11.2z M17.9,13.2c0,0.1,0.2,0.1,0.2,0.2l0,0l0,0c0,0-0.1,0-0.1,0c-0.2-0.1-0.3-0.2-0.6-0.3c0,0,0,0,0-0.1 c0,0-0.1,0-0.1-0.1c0-0.1,0.1-0.3,0.1-0.4c0,0,0,0,0,0l0,0c-0.1,0-0.3,0-0.4-0.1l0,0c0,0,0,0,0,0c-0.1,0-0.1,0-0.2-0.1 c-0.2-0.1-0.3-0.2-0.5-0.3l-0.1,0c-0.2,0-0.3-0.2-0.4-0.2l0,0c0.1,0,0.3-0.1,0.3-0.1c0.1,0,0.2,0.1,0.2,0.3c0,0,0,0,0,0 c0.1,0,0.2-0.1,0.4-0.1c0.4,0,0.6,0.3,0.9,0.5c0.1,0.1,0.2,0.2,0.3,0.3c0,0,0,0.1-0.1,0.1l0.8,0.4l0,0l-0.1,0 c-0.3,0-0.3-0.2-0.5-0.2C18,13.2,17.9,13.2,17.9,13.2C17.9,13.2,17.9,13.2,17.9,13.2L17.9,13.2z M16.7,21.3 c-0.3,0.1-0.3,0.5-0.8,0.2c-0.1-0.1-0.1-0.2-0.1-0.2c-0.1-0.1-0.4,0-0.4-0.2c0,0,0,0,0,0c0.1,0,0.1,0.1,0.2,0.1c0,0,0,0,0,0 c0-0.1,0-0.2,0-0.3c0.3-0.1,0.4,0.1,0.7-0.1c0,0,0.1,0,0.1,0c0,0,0.1,0.1,0.1,0.1c0.2,0.1,0.2-0.1,0.4-0.1c0.1,0.1,0,0.1,0.1,0.2 c0.1,0.1,0.6,0.3,0.5,0.5c-0.1,0-0.3,0-0.5,0C17,21.3,16.9,21.2,16.7,21.3z M17.1,22.6L17.1,22.6c-0.1,0.1-0.4,0.1-0.5,0l0-0.1 c0.1-0.1,0.2-0.1,0.3-0.2C17,22.4,17,22.5,17.1,22.6z M14.9,16.3c0,0-0.1,0.1-0.1,0.1c0,0,0,0.1,0,0.1c0,0,0,0.1-0.1,0.1 c0,0-0.1,0-0.2,0c0,0,0,0,0,0c0,0-0.1-0.1-0.2-0.1c0,0-0.1,0-0.1,0c0,0,0,0,0,0.1c-0.1,0-0.1,0.1-0.2,0.1c0,0,0,0,0,0 c0,0-0.1,0-0.1-0.1c0,0,0,0,0-0.1c0,0,0,0,0-0.1l0,0c-0.1,0-0.1,0.1-0.2,0.1c-0.1,0.1,0,0.2-0.2,0.3l0,0v0c0,0,0-0.1,0-0.1 c0,0,0,0,0,0c-0.1,0-0.1,0.1-0.2,0.1c0,0,0,0-0.1,0c0,0,0,0,0-0.1c0.2-0.4,0.6-0.6,0.9-0.9c0.1-0.1,0.3-0.2,0.3-0.3c0,0,0,0,0,0 c0,0-0.1,0-0.1-0.2c0.1-0.1,0.2-0.2,0.3-0.3c0,0,0,0,0,0c-0.1,0-0.2,0-0.2,0c0,0.1-0.1,0.2-0.2,0.2l0,0l-0.3,0 c-0.1,0-0.2,0.1-0.2,0.1c-0.1,0-0.5,0.3-0.5,0.5c0,0,0,0,0,0c0,0,0,0,0,0.1c0,0,0,0,0,0c0,0.1,0,0.1-0.1,0.2c0,0,0,0,0,0 c0,0,0,0.1,0,0.2l-0.1,0c0,0,0,0,0-0.1c0,0,0,0,0,0c0,0,0,0.1-0.1,0.2c0,0-0.1,0-0.1,0c0,0-0.1,0-0.1,0c0,0,0,0,0,0 c0,0.1-0.1,0.2-0.1,0.3c0,0,0,0,0,0c0.1,0,0.2,0,0.3,0.1c0,0.1,0,0.1,0,0.2c0,0,0,0,0,0c0.1,0,0.1,0,0.2,0l0,0.1 c-0.1,0.1-0.1,0.2-0.2,0.3c0,0-0.1,0-0.1,0c0,0-0.1,0.1-0.1,0.1c0,0-0.1,0-0.1,0c0,0-0.1,0.1-0.1,0.1c-0.1,0.1-0.3,0.1-0.4,0.2l0,0 c0,0,0,0-0.1,0c0,0-0.1-0.1-0.1-0.1c0,0,0,0,0,0c0,0,0,0-0.1,0c0,0,0,0,0,0c0,0,0,0,0,0.1c0,0,0,0,0,0.1c-0.1,0-0.2,0-0.3,0 c0,0,0,0.1-0.1,0.1c0,0-0.1,0-0.1,0c-0.1,0-0.2,0.2-0.3,0.2c-0.1,0.1-0.3,0-0.4,0.1c-0.1,0-0.2,0.1-0.3,0.1c0,0,0,0-0.1,0l0,0 c0.1-0.1,0.3-0.2,0.4-0.3c0,0,0,0,0.1-0.1c0,0,0,0,0,0c0,0,0,0,0,0l0,0c0,0,0.1,0,0.1,0c0,0,0,0,0,0c0.1,0,0.1-0.1,0.2-0.1l0-0.1 c0,0,0,0,0,0c-0.2,0.1-0.3,0.1-0.5,0.1c-0.1,0-0.2,0.1-0.3,0.2c-0.1,0-0.2,0-0.3,0c-0.1,0-0.1,0-0.2,0c-0.1,0-0.2,0-0.2,0 c-0.1,0-0.2,0.1-0.3,0.1c-0.1,0-0.2,0-0.2-0.1c-0.1,0.1-0.4,0.3-0.7,0.3c0,0-0.1,0-0.1,0c-0.1,0-0.2-0.1-0.3-0.1c0,0-0.1,0-0.1,0 c0,0,0,0.1-0.1,0.1c-0.1,0-0.1,0-0.1,0c-0.1,0-0.1-0.1-0.2-0.1c0,0,0,0-0.1,0c-0.1,0-0.2,0-0.3,0c0,0,0,0,0,0l0,0l0,0 c0.1,0,0.1,0.1,0.1,0.1l0,0c0,0,0,0-0.1,0.1c0,0,0,0,0,0c-0.2,0-0.2-0.1-0.3-0.2l-0.2-0.1c0,0,0,0,0,0c0,0,0,0,0,0c0,0-0.1,0-0.2,0 c-0.1-0.1-0.1-0.2-0.2-0.2c-0.1,0-0.1,0-0.2,0c0,0,0,0,0,0c-0.1,0-0.1,0.1-0.2,0.2c0,0,0,0-0.1,0l0,0c0,0,0-0.1,0-0.1l0,0 c0,0-0.1-0.4-0.1-0.4c0,0,0,0,0,0c-0.1,0.1-0.2,0.1-0.3,0.2C5,18.1,4.7,18,4.6,17.8c0,0,0,0,0-0.1c0,0,0-0.1,0-0.1c0,0,0,0,0.1,0 c0.1,0.1,0.2,0,0.3,0.1c0,0,0,0,0,0c0-0.1-0.1-0.2-0.1-0.2L4.5,17c-0.1,0-0.2,0.1-0.4,0.2c0,0,0,0,0,0c0,0,0,0,0,0 c0-0.2,0.1-0.2,0.1-0.3c0,0,0,0,0-0.1v-0.1c0,0,0-0.1,0.1-0.1c0,0,0,0,0.1,0c0,0.1,0,0.1,0,0.1c0,0,0.2-0.2,0.2-0.3 c0,0-0.1,0-0.1-0.1l0,0l0-0.1l-0.1-0.1l0,0l-0.2,0.2l0,0l0,0c0-0.1,0-0.1,0-0.1c0,0,0,0,0,0c0,0-0.1,0-0.2,0c0,0,0,0,0,0l0,0 c0,0,0,0,0,0c0,0,0-0.1,0-0.1c0,0,0.1-0.1,0.1-0.1c0,0,0.1,0,0.1,0c0,0,0.1,0,0.1,0c0,0,0,0,0,0c0,0,0-0.1,0-0.1 c0,0,0.2-0.2,0.1-0.2c0,0,0,0,0-0.1c0,0-0.1,0.1-0.1,0.2c0,0-0.1,0-0.1,0c0,0,0-0.1,0-0.1c0-0.1,0-0.1,0.1-0.1c0,0,0-0.1,0-0.2 c0-0.1,0-0.3,0.1-0.4c0.1,0,0.1-0.1,0.2-0.2c0,0,0.1,0,0.1-0.1c0.1-0.1,0-0.2,0.2-0.3l0,0l0,0c0,0,0,0,0,0.1c0,0.1-0.1,0.2-0.1,0.3 c-0.1,0.1-0.1,0.3-0.2,0.4c0,0.1,0,0.1,0,0.2c0,0,0,0.1,0,0.1c0,0,0,0,0,0c0,0,0,0,0.1-0.1l0,0c0,0,0,0,0,0c0,0,0,0,0,0 c0.1-0.3,0.2-0.4,0.3-0.6c0,0,0,0,0-0.1c0-0.1,0-0.1,0-0.2c0,0,0,0,0,0c0.1,0,0.2-0.2,0.2-0.3c0,0,0,0,0-0.1h0c0,0-0.1,0-0.1,0 c0,0-0.1-0.1-0.1-0.1c0,0,0,0,0,0c0-0.1,0.1-0.2,0.1-0.2c0-0.1,0-0.1,0-0.2c0-0.1,0.1-0.2,0.1-0.2c0,0,0.1-0.1,0.1-0.1 c0.1-0.2,0.3-0.7,0.5-0.8c0,0,0.1-0.1,0.1-0.1c0.2-0.3,0.5-0.5,0.5-0.5l0.1,0l0,0c-0.1,0.1-0.1,0.3-0.2,0.4 c-0.3,0.1-0.3,0.3-0.5,0.5c0,0.1,0,0.1,0,0.1c0,0.1,0,0.1-0.1,0.2l0,0c0,0,0,0,0,0.1c0,0,0,0,0,0.1c0,0-0.1,0.1-0.1,0.1 c0,0.1,0,0.1,0,0.2c0,0.1-0.1,0.2-0.1,0.4c-0.1,0.2-0.2,0.4-0.3,0.5c0,0.1,0,0.1,0,0.2c-0.1,0.2-0.2,0.5-0.4,0.6l0,0 c0,0,0.1,0.1,0.1,0.2c0,0,0,0,0,0.1c-0.1,0.1-0.2,0.1-0.2,0.2c0,0,0,0,0,0c0,0,0,0,0,0.1c0,0,0,0,0,0c0,0.1-0.1,0.1,0,0.1 c0,0,0,0,0,0l0.2,0.2l0.1,0c0,0,0.1-0.1,0.1-0.1l0,0v0.1c0,0.2,0,0.3-0.1,0.4l0,0c0,0,0,0,0.1,0.1c0,0.1,0.1,0.2,0.2,0.3 c0,0,0.1,0,0.1,0c0.1,0.1,0.3,0.2,0.3,0.3c0.1,0.1,0.1,0.3,0.2,0.3c0,0,0.1,0,0.1,0c0.1,0,0.2-0.1,0.3-0.1c0.1,0,0.1,0,0.2,0.1 c0,0,0,0.1-0.1,0.1c0,0,0,0,0,0c0,0,0,0,0,0c0,0.1,0.3,0.2,0.4,0.2c0,0,0.1,0.1,0.1,0.1c0.1,0,0.2,0,0.3,0.1c0.1,0,0.2,0.1,0.3,0.1 c0,0,0.1,0,0.1,0c0,0,0.1,0,0.1,0c0,0,0,0,0,0c0,0,0,0,0,0c0,0,0.1,0,0.1,0c0.1,0,0.1,0,0.2,0c0.1,0,0.2,0,0.3-0.1 c0.2,0,0.4,0,0.5-0.1C8.8,18,8.8,17.9,9,17.7l0.1,0l0.2,0.2l0.1,0c0.3,0,0.4,0,0.6-0.3c0,0,0,0,0,0c0.1,0,0.2,0,0.3,0 c0.1,0,0.1,0,0.2,0c0,0,0,0,0,0c-0.1-0.1-0.1-0.1-0.3-0.2l0-0.1c0.1,0,0.3-0.1,0.4-0.1c0,0,0,0,0,0c0.1,0,0.1,0,0.1,0 c0.1,0,0.1,0,0.2,0c0.1,0,0.1-0.1,0.2-0.1l0.4-0.1c0.4-0.2,0.7-0.5,0.9-0.8c0.1-0.1,0.4-0.4,0.4-0.6c0,0,0,0,0,0 c-0.1-0.6-0.5-0.7-1.1-0.8c0,0-0.1,0-0.1,0c-0.2,0-0.3,0.1-0.5,0.1c0,0-0.1,0-0.1,0c-0.1,0-0.1-0.1-0.2-0.1c-0.1,0-0.3-0.1-0.5-0.1 c-0.1,0-0.1,0-0.2,0c-0.2,0-0.3,0.1-0.4,0.2c-0.1,0-0.2,0.1-0.2,0.2c0,0-0.1,0-0.1,0c-0.1,0-0.2,0-0.3,0c0,0-0.1,0-0.1,0 c-0.1,0-0.1,0.1-0.2,0.2c0,0-0.1,0-0.1-0.1c0,0,0-0.1,0-0.1c0,0,0,0,0,0l0,0c0,0-0.1,0-0.1,0c0,0-0.1,0-0.1,0c0,0,0,0,0,0 c0,0,0,0,0,0l0,0c0-0.1,0.1-0.1,0.1-0.2c0.1,0,0.1,0,0.2,0c0,0,0-0.1,0.1-0.1c0.1-0.1,0.1-0.1,0.2-0.1l0-0.1c0,0,0,0,0,0 c-0.1,0-0.1,0.1-0.2,0.1c0,0,0,0,0,0.1c0,0,0,0-0.1,0c-0.1,0-0.1,0-0.2-0.1c0,0,0,0,0,0c0-0.1,0-0.1-0.1-0.1c-0.1,0-0.1,0-0.2,0 c0,0-0.1,0-0.1,0l0,0l0,0C8.2,14,8.4,14.1,8.6,14c0,0,0.1-0.1,0.1-0.1c0.1,0,0.1,0,0.2,0c0,0,0.1,0,0.1,0l0,0c0,0,0,0,0-0.1 c0-0.2,0.2-0.5,0.2-0.8c0,0,0,0,0,0l-0.1-0.2l-0.2,0v0c0,0-0.1,0.1-0.1,0.1c0,0.1,0,0.2,0,0.3c0,0-0.1,0-0.2,0c0,0-0.1-0.1-0.1-0.1 l0,0l0,0c0,0,0,0.1-0.1,0.1c0,0,0,0-0.1,0c0,0,0,0-0.1-0.1c0,0,0,0,0-0.1c0,0,0,0,0,0c-0.1,0.1-0.3,0.2-0.4,0.2c0,0,0,0,0,0 c-0.1,0.1-0.3,0.3-0.4,0.4h0c0,0,0,0.1,0,0.1c0,0,0,0,0,0C7.4,13.9,7.3,14,7.2,14c-0.1,0.1-0.2,0.3-0.3,0.4c-0.1,0-0.1,0-0.1,0 c0,0,0,0,0,0c-0.1,0,0,0.1-0.2,0.2c0,0,0,0,0,0c0,0,0,0,0,0c0,0,0,0,0,0c0,0,0,0,0-0.1c0-0.1,0-0.1,0-0.2c-0.2,0-0.3,0.2-0.4,0.5 c0,0.1-0.1,0.2-0.1,0.3l0,0.1l0.1,0.1c0,0,0-0.1,0-0.1c0,0,0.1,0,0.1,0.1c0,0,0,0.1,0,0.1c0,0,0,0,0,0.1c0,0,0.5,0.3,0.7,0.3l0,0.1 c0,0,0,0,0,0c0,0,0,0,0,0c0,0,0,0-0.1,0l0,0c0,0,0,0-0.1,0C7,16,7.1,16.1,7.3,16.1c0,0,0.1,0,0.1,0c0.1,0,0.1,0,0.2-0.1l0.3,0 c0,0,0.1,0.1,0.2,0.1h0c0,0,0,0,0,0c0,0,0.1-0.1,0.1-0.1c0,0,0.1,0,0.1,0c0,0,0.1,0,0.1,0c0,0,0,0,0,0c0.1,0,0.2-0.1,0.3-0.1 c0,0,0,0,0.1,0c0.1,0,0.1,0.1,0.2,0.1C9,16,9,16,9.1,16l0,0.1c0,0-0.1,0-0.1,0l0,0h0c0,0,0,0,0,0c0.1,0,0.3-0.2,0.5-0.2 c0,0,0,0,0.1,0c0,0,0,0.1,0,0.1c0,0,0,0,0,0c0.1,0,0.1,0,0.2,0c0,0,0,0,0.1,0c0.1,0,0.2,0.1,0.2,0.1c0,0,0.1,0,0.1,0 c0.1,0,0.1,0,0.2,0c0.1,0,0.1,0,0.2,0.1l0,0c-0.1,0.1-0.2,0.1-0.2,0.1c0,0-0.1,0.1-0.2,0.1c-0.1,0-0.2,0-0.2,0c0,0-0.1,0-0.1,0 c0,0-0.1,0-0.1,0c0,0-0.1,0-0.1,0l-0.3-0.1c0,0.1-0.2,0.1-0.2,0.1c0,0,0,0,0,0c0,0.1,0.1,0.1,0.2,0.1l0,0.1c0,0.1-0.1,0.1-0.2,0.1 c-0.1,0-0.1,0-0.2,0c-0.1,0-0.2,0.2-0.4,0.2c0,0-0.1,0-0.1,0l-0.4-0.2c-0.1,0-0.2,0-0.3,0.1c0,0,0,0,0,0c0.1,0.1,0,0.2,0.1,0.3l0,0 l-0.2,0c-0.1-0.1-0.2-0.2-0.3-0.2c-0.1,0-0.2,0-0.2,0.1c0.1,0.1,0.2,0.3,0.2,0.5c-0.1,0-0.1,0.1-0.3,0.1c0,0-0.2,0-0.3-0.1 c0-0.1-0.1-0.1-0.1-0.2c-0.1-0.2-0.3-0.4-0.4-0.5c0,0,0,0-0.1,0c0,0-0.1-0.1-0.1-0.1c-0.1-0.1-0.2-0.1-0.3-0.2 c-0.1-0.1,0-0.1-0.1-0.2c-0.1-0.1-0.1-0.2-0.2-0.2c0-0.1,0-0.2,0-0.2l-0.2-0.2c0-0.1,0-0.1,0.1-0.2c0,0,0,0,0-0.1c0-0.1,0-0.1,0-0.2 c0-0.1,0-0.2,0.1-0.2c0,0,0.1,0,0.1,0c0,0,0,0,0,0c0-0.1,0-0.3,0-0.4c0-0.3,0-0.5,0.1-0.7c0.1-0.1,0.2-0.2,0.2-0.3l0.1,0l0,0 c0.1-0.1,0.1-0.2,0.2-0.4c0.1-0.3,0.4-0.8,0.7-1c0.2-0.2,0.5-0.2,0.7-0.3c0,0,0,0,0,0l0,0l0,0c0.1-0.1,0.1,0,0.1-0.1l0,0 c0,0,0,0-0.1-0.1c0,0,0-0.1,0-0.1c0,0,0,0,0,0c0,0-0.1,0-0.1-0.1l0,0c0,0,0,0,0-0.1l0,0c0,0,0,0,0.1,0c0,0.1,0.1,0.1,0.1,0.1 c0.2,0,0.5-0.3,0.8-0.3c0,0,0,0,0.1,0l-0.2,0.5l0.1,0.1c0.6,0,0.4-0.6,0.8-0.7L9.7,11c0.1-0.1,0.2-0.2,0.3-0.3l0.9-0.2 c0.1,0,0.2,0,0.3,0c0.1,0,0.2,0,0.3,0l0.2,0c0.1,0,0.1,0,0.2,0c0,0,0-0.1,0-0.1c0,0,0-0.1,0-0.1v0c0,0,0,0,0.1,0 c0.1,0,0.1,0,0.2,0.1c0,0.1,0,0.1-0.1,0.1c0,0,0,0,0,0c0,0,0.1,0,0.1,0c0.1,0,0.1,0,0.2,0c0.1,0,0.1,0,0.2,0c0,0,0,0,0,0.1 c0,0.1,0,0.1-0.1,0.2c0.1,0,0.3,0,0.4,0.1c0,0,0,0.1,0,0.1c0.1,0,0.1,0,0.2,0c0.2,0,0.3,0.1,0.5,0.3c0,0,0,0.1-0.1,0.1 c-0.1,0-0.2-0.1-0.3-0.1c0,0,0,0-0.1,0c0,0,0,0,0,0c0,0,0,0,0,0c0.2,0.1,0.3,0.2,0.5,0.2l0,0c0,0,0,0,0-0.1c0,0,0,0,0.1-0.1 c0.1,0,0.3,0,0.3,0.1c0,0,0,0,0,0l0,0l-0.1,0c-0.1,0-0.1-0.1-0.2-0.1c0,0.1,0,0.1-0.1,0.2c0,0,0,0,0,0c-0.2,0-0.3-0.1-0.4-0.2 c0,0,0,0,0,0l0,0.1c-0.1,0-0.1-0.1-0.2-0.1c0,0,0,0,0,0c0,0-0.1,0-0.1-0.1c0,0,0,0,0,0c0,0,0,0,0,0c0,0,0,0,0-0.1l0,0 c-0.2-0.1-0.3-0.1-0.6-0.2l-0.3-0.1c-0.1,0.1-0.2,0.1-0.2,0.1c-0.1,0-0.2,0-0.3,0l-0.1,0.1c0.3,0.1,0.5,0,1,0.1l0,0c0,0,0,0,0,0 c0,0,0,0,0,0c0,0,0.2,0.1,0.2,0.1c0.2,0.1,0.6,0.2,0.7,0.4c0,0.1,0.3,0.1,0.4,0.2c0.1,0.1,0.1,0.3,0.2,0.4c0,0.1-0.1,0-0.1,0.1l0,0 l0,0l0,0c-0.3-0.1-0.5-0.5-1.1-0.6l-0.2,0l-0.1-0.1c0,0,0,0,0,0c-0.2,0-0.5,0.1-0.7,0.1c0,0,0,0-0.1,0c-0.1,0-0.1-0.1-0.1-0.1 c0,0-0.1,0.1-0.1,0.1l0.1,0.1l0.1,0.1c0,0,0,0-0.1,0.1c-0.1,0-0.1,0-0.2,0c-0.2,0-0.4,0-0.6,0.1c-0.1-0.1-0.1-0.1-0.2-0.1 c-0.2,0.2-0.4,0.2-0.5,0.4l-0.2,0.2l0,0c0,0.1,0.1,0.2,0.1,0.4l0,0c0,0.2-0.3,0.5-0.4,0.6l0,0c0.1,0,0.2,0.1,0.3,0.1 c0,0,0.1,0,0.1,0c0,0,0.1-0.1,0.2-0.1c0.1,0.1,0.1,0.1,0.1,0.1c0,0,0,0,0,0c0.1,0,0.1-0.1,0.2-0.1c0.1,0.1,0.2,0,0.3,0.1 c0,0.1,0,0.1,0.1,0.1c0,0.1-0.2,0.2-0.2,0.3c0,0,0,0,0,0v0c0.3,0,0.4-0.2,0.6-0.3c0.1,0,0.2,0,0.2,0c0.1,0,0.1,0,0.1,0c0,0,0,0,0,0 c0,0-0.2-0.1-0.3-0.2c0,0,0,0,0-0.1c0,0,0.1-0.1,0.1-0.1c0.1,0,0.3,0.1,0.3,0.1c0,0.1,0,0.1,0,0.1l0.2,0.1c0,0,0.1,0.1,0.1,0.1 c0.1,0,0.1,0,0.2,0.1c0,0,0.1,0.1,0.1,0.1h0c0,0,0.1,0,0.1,0c0,0,0,0,0,0c0,0.3,0.2,0.2,0.5,0.3c0,0,0,0.1,0,0.1 c0,0,0.1-0.1,0.2-0.1c-0.1-0.1-0.2-0.2-0.3-0.3c0,0,0-0.1,0.1-0.1c0.1,0,0.1-0.1,0.2-0.1c0,0,0,0.1,0,0.1c0,0,0,0,0,0 c0,0,0.1,0,0.1,0c0,0,0-0.1,0-0.1c0,0,0,0,0,0c0,0-0.1-0.1-0.1-0.1c-0.1,0-0.1,0-0.2,0c0,0,0,0-0.1,0c0-0.1-0.2-0.1-0.2-0.3 c0,0,0,0,0-0.1c0.1,0,0.1-0.1,0.2-0.1c0.1-0.1,0.3-0.2,0.5-0.2c0.1,0.1,0.1,0.1,0.2,0.1c0,0,0,0,0.1,0c0,0,0,0,0,0.1 c-0.1,0.1,0,0.4-0.1,0.5c-0.1,0.1-0.3,0.2-0.3,0.3c0,0,0.1,0.1,0.1,0.1c0,0,0.1,0,0.1-0.1l0,0c0.1,0.1,0.1,0.1,0.1,0.2 c0,0.1,0,0.2-0.1,0.2c-0.1,0-0.1,0-0.1,0.1c0,0.1,0,0.1,0.1,0.2c0,0,0,0.1,0,0.1c0,0,0,0,0,0l0.1,0.1c0.2,0,0.2-0.2,0.3-0.3 c0.1-0.1,0.2-0.2,0.3-0.3c0-0.1,0-0.1,0-0.3c0-0.1,0.2-0.1,0.2-0.2c0-0.1-0.1-0.3-0.1-0.4c0,0,0,0,0,0c0-0.1,0.1-0.1,0.1-0.1l0,0 c0-0.1,0-0.1-0.1-0.1h0c0,0-0.1,0-0.2,0c0,0,0,0-0.1,0l0,0l0-0.1c0-0.1,0.1-0.1,0.1-0.1c0-0.1-0.1-0.1-0.1-0.1c0,0,0,0,0,0 c0,0.1,0,0.1-0.1,0.1l0,0c0,0,0,0-0.1-0.1c0,0,0,0,0,0c0-0.2,0.1-0.2,0.2-0.3c0.4,0.1,0.5,0.7,0.6,1c0,0.1,0.1,0.1,0.1,0.2 c0,0,0,0,0,0.1c0,0-0.1,0-0.1,0c0,0,0,0.1,0,0.2c0,0,0,0,0,0.1l0,0.1l0,0c0.1,0,0.1-0.2,0.2-0.3l0.2-0.2c0,0,0,0,0.1,0l0,0.1l0,0.3 c0.1,0,0.2,0,0.3-0.1c0,0,0.1-0.1,0.1-0.2c0,0,0,0,0,0c0.1,0,0.1,0,0.2,0.1c0,0,0,0.1,0,0.1c0,0,0,0.1-0.1,0.1 c-0.1,0-0.1,0.1-0.1,0.1c0,0,0,0,0,0l0,0c0,0,0.1,0,0.2,0.1c0,0.1,0.2,0.2,0.3,0.2c0.1,0,0,0.1,0,0.1l0.1,0.1l0,0.1 C16.2,14.9,16.1,15,16,15c0,0,0,0-0.1,0c0-0.1,0-0.1-0.1-0.1c0,0-0.1,0.1-0.2,0.1l0,0l0,0c0,0,0,0,0-0.1l-0.3-0.1l0,0 c0,0-0.1,0.1-0.1,0.1c0,0,0,0-0.1,0c0-0.1-0.1-0.1-0.1-0.1c0,0,0,0,0,0c-0.1,0-0.3,0.2-0.3,0.4c0,0.1,0,0.1,0,0.1l0.4,0 c0,0,0,0,0,0.1c0.1,0,0.2-0.1,0.3-0.1c0,0,0.1,0,0.1,0.1l0,0c-0.1,0-0.2,0.1-0.3,0.1l0,0l-0.1,0.1c0,0,0,0,0,0.1c0,0,0,0,0,0.1l0,0 c-0.1,0.1-0.2,0.1-0.3,0.1c0,0,0,0,0,0c0,0,0.1,0,0.1,0c0,0,0.1,0,0.1,0.1c0,0,0,0,0,0c0,0.1,0,0.2,0,0.2c-0.1,0-0.1,0.1-0.2,0.1 C14.9,16.2,14.9,16.3,14.9,16.3z M10.4,23.8C10.3,23.8,10.3,23.8,10.4,23.8c-0.2,0-0.2-0.1-0.3-0.2c-0.1,0-0.3,0-0.4-0.1 c0,0,0,0,0,0c0,0,0,0,0-0.1c0.2-0.2,0.6-0.3,0.9-0.3c0.1,0,0.3,0.2,0.5,0.1c0.2-0.1,0.2-0.4,0.3-0.5c0,0,0.1,0,0.1,0 c0.1,0.1,0.2,0.2,0.2,0.3c0.2,0.1,0.4,0.3,0.6,0.4l0.1,0.3c0.2,0.1,0.4,0,0.6,0.1c0.1,0,0.2,0.2,0.3,0.3c0.2,0,0.2-0.2,0.4-0.2 c0.1,0,0.1,0.1,0.2,0.2c-0.2,0.6-1.6,0.4-1.8,0.1c0-0.1,0-0.2-0.1-0.2c-0.1-0.1-0.1-0.1-0.2-0.2c-0.1-0.1,0-0.3-0.1-0.4 c-0.2,0-0.7,0-0.9,0.1C10.5,23.6,10.4,23.7,10.4,23.8z M10.5,27.1C10.5,27.1,10.5,27.1,10.5,27.1c-0.1,0.1-0.2,0.1-0.3,0.1 c-0.1,0-0.1-0.1-0.2-0.1c0-0.1,0-0.3,0.1-0.3c0,0,0,0,0,0C10.3,26.8,10.5,26.9,10.5,27.1z M8.3,22.4c0.2-0.1,0.4-0.1,0.7-0.2 c0.2,0,0.4,0.1,0.5,0.2C9.4,22.9,8.5,22.8,8.3,22.4C8.3,22.5,8.3,22.4,8.3,22.4z M7.9,20.9c0-0.2,0.3-0.2,0.6-0.4 c0.1,0,0.2,0,0.3-0.1c0.1,0,0.1,0,0.2,0C9,20.6,8.6,20.9,8.4,21C8.1,21,8,21,7.9,20.9z M11.2,21.7c0-0.1,0-0.1,0.1-0.1 c0.2,0,0.4,0.2,0.5,0c0,0,0-0.1,0-0.2c0-0.1-0.1-0.1-0.1-0.1c0,0,0,0,0,0c0.1,0,0.1,0,0.1,0c0.1-0.4,0.5-0.1,0.9-0.3 c0.1,0,0.1,0,0.2,0.1c0,0,0,0.1,0,0.1c-0.1,0-0.3,0.1-0.4,0.1c0,0.1,0.1,0.1,0.1,0.1c0,0,0.1,0.1,0.1,0.1c0.2,0.1,0.5-0.1,0.7,0.1 c0,0,0,0,0,0c-0.2,0.1-0.9,0.1-1.2,0.1c-0.1,0-0.2-0.1-0.3-0.1l-0.1,0c0,0,0,0.1,0,0.1c0.1,0,0.3,0,0.4,0.1c0,0.1,0,0.1,0,0.1 c-0.2,0-0.4,0.1-0.6,0.1c-0.3,0.1-0.7,0.2-1.1,0.1c-0.2,0-0.3-0.3-0.4-0.3c-0.1,0.1-0.2,0.3-0.3,0.2c-0.1,0-0.2-0.2-0.3-0.2 c0,0,0,0,0-0.1c0.3-0.1,0.3-0.1,0.6,0c0.2,0,0.5,0,0.7-0.1C10.9,21.7,11.1,21.8,11.2,21.7z M11,20.1c0-0.3,0.2-0.2,0.4-0.3l0.1,0 c0.1,0,0.1,0.1,0.2,0.2C11.5,20.1,11.3,20.2,11,20.1L11,20.1z M13.3,20.3C13.3,20.3,13.3,20.3,13.3,20.3c0.1-0.1,0.1-0.1,0.2-0.1 c0-0.1,0-0.2,0.1-0.2c0.1,0,0.1-0.1,0.2-0.1c0,0,0,0,0,0c0.1,0.1,0.1,0.4,0,0.5C13.7,20.4,13.4,20.4,13.3,20.3z M13.4,21.1 C13.4,21.1,13.4,21.1,13.4,21.1c-0.2,0-0.5-0.1-0.5-0.3c0,0,0,0,0,0c0,0,0,0,0,0C13.1,20.7,13.5,20.9,13.4,21.1z M13.8,19.1 c-0.2,0-0.3-0.1-0.5-0.1c-0.2,0.2-0.1,0.4-0.6,0.4c-0.5-0.4,0.4-0.7,0.8-1l0.1,0c0.2,0.1,0.4,0.4,0.3,0.7 C13.9,19.1,13.8,19.1,13.8,19.1z M10.6,19.9c0,0,0,0.1,0,0.2c0,0,0,0,0,0c0,0,0,0,0,0c-0.1-0.1-0.2-0.2-0.4-0.1l0,0.1 c0,0.1,0.1,0.1,0.1,0.2c0,0,0,0,0,0c-0.1,0-0.3,0-0.4,0c-0.1,0-0.2,0.2-0.3,0.3c-0.2,0-0.1-0.2-0.1-0.3c0-0.1-0.1,0-0.1-0.1 c0-0.1,0-0.1,0.1-0.1c0,0,0,0,0,0c0,0,0,0.1,0,0.1c0.2,0,0.4-0.2,0.6-0.3c0.1-0.1,0.3-0.2,0.5-0.2c0.1,0,0.2,0,0.2-0.1 c0,0,0,0,0.1,0c0,0,0,0,0,0l0,0C10.7,19.6,10.6,19.7,10.6,19.9z M8.9,26.1c0.3,0,0.9,0.4,1.1,0.6c0,0,0,0,0,0c0,0,0,0,0,0 c-0.2,0-1-0.3-1-0.4C8.8,26.3,8.8,26.2,8.9,26.1C8.8,26.1,8.8,26.1,8.9,26.1z M13.4,23.4c-0.1,0-0.4,0.1-0.5,0 c-0.1-0.1-0.1-0.2,0-0.3c0.2,0,0.2,0,0.4,0c0.5,0,0.5,0,0.7,0.3c0,0,0,0.1,0,0.1c0,0,0,0,0,0l-0.1,0c0,0,0,0-0.1,0 C13.7,23.5,13.5,23.4,13.4,23.4z M14,21.7c-0.1,0-0.3,0-0.3-0.1c0,0,0,0,0.1-0.1c0.1,0,0.2,0,0.3,0c-0.1,0-0.1-0.1,0-0.1 c0.1-0.1,0.1-0.2,0.3-0.1c0.2,0,0.2,0,0.3,0.1c0.1,0.1,0.2,0.3,0.1,0.3c0.1,0,0.1,0.1,0.2,0.1c0,0,0,0,0,0c0,0,0,0,0,0 C14.5,21.8,14.3,21.8,14,21.7z M10.9,9.6C10.9,9.6,10.9,9.6,10.9,9.6L10.9,9.6c0.1,0,0.1,0,0.2,0l0,0.1l-0.1,0.1l-0.1,0.1 c-0.2,0.2-0.2,0.1-0.5,0.1c-0.1,0-0.1,0-0.2,0c0,0,0,0,0-0.1c0.1-0.1,0.1-0.1,0.3-0.2c0-0.1,0.1-0.1,0.1-0.1c0,0,0,0,0,0 c0,0,0.1,0,0.1,0c0,0,0,0,0,0C10.7,9.6,10.8,9.6,10.9,9.6z M16.7,13.7c0.1,0,0.3-0.1,0.4-0.1c0,0,0,0,0,0c-0.1,0.1-0.2,0.2-0.3,0.3 c0.1,0,0.2,0.1,0.3,0.1l0,0c-0.1,0-0.1,0.1-0.1,0.1c0,0,0.1,0,0.1,0.1c0,0,0,0,0,0c-0.1,0-0.1,0.1-0.2,0.2c-0.1,0-0.2-0.2-0.2-0.2 l0.1-0.2c0,0-0.1-0.1-0.1-0.1c0,0,0,0-0.1,0l0,0l0,0c0,0,0-0.1-0.1-0.2c-0.1,0-0.2,0.1-0.3,0.1c0,0,0,0,0,0c0-0.1,0-0.1,0-0.2 c-0.1,0-0.2,0-0.2-0.1c0-0.1,0.1-0.2,0.1-0.3c0.1,0,0.1,0,0.2,0.1c-0.1-0.2-0.3-0.3-0.4-0.5c0-0.1,0-0.2,0.1-0.2c0,0,0,0,0,0 c0.2,0.1,0.1,0.3,0.2,0.3c0.1,0,0.2,0,0.3,0.1c0.2,0.1,0.4,0.2,0.5,0.4c0,0-0.1,0.1-0.1,0.1C16.7,13.5,16.7,13.6,16.7,13.7 C16.7,13.7,16.7,13.7,16.7,13.7z M15.8,11.6c-0.3,0-0.7-0.4-0.7-0.6c0,0,0,0,0,0c0,0,0.1,0,0.1,0c0.4,0,0.7,0.3,0.7,0.5 c0,0,0,0.1-0.1,0.1h0C15.8,11.6,15.8,11.6,15.8,11.6z M15.1,21.7c0.2,0,0.7,0.4,1,0.5c0.1,0,0.2,0.2,0.1,0.3c0,0,0,0,0,0 c-0.1-0.1-0.3-0.2-0.4-0.3C15.5,22,15.2,21.9,15.1,21.7C15.1,21.7,15.1,21.7,15.1,21.7z M14.1,8.4c0.1,0,0.2-0.1,0.3-0.2 c0.1,0,0.4,0.1,0.5,0.2l-0.1,0.2l0,0l0,0C14.4,8.5,14.4,8.5,14.1,8.4L14.1,8.4L14.1,8.4z M12.7,8.9l0.2,0c0,0,0.2,0,0.2,0l0.3-0.1 l0-0.1c0,0-0.1,0-0.2,0c0,0-0.1-0.1-0.1-0.1c0,0,0-0.1,0.1-0.1c0.1,0,0.2-0.1,0.3-0.1c0,0,0,0,0.1,0l0,0.1l0,0c0,0-0.1,0.1-0.1,0.1 l0,0v0c0.1,0,0.2,0,0.4,0c0.2,0,0.3,0,0.4,0.1l0,0c0,0,0,0-0.1,0c-0.1,0-0.2,0-0.3,0c-0.1,0-0.2,0-0.3,0l-0.1,0.1c0,0,0,0,0,0 c0.1,0,0.2,0,0.3,0c0.3,0,0.5,0.1,0.7,0.1c0,0,0.1,0,0.1,0c0.1,0,0.1,0,0.2,0c0.1,0,0.1,0,0.2,0l0,0c0,0,0,0,0,0c0,0,0,0,0-0.1 c0,0-0.1-0.1-0.1-0.1c0,0,0-0.1,0.1-0.1c0.1,0,0.2,0,0.2-0.1c0.2,0,0.5,0.1,0.6,0.2c0,0,0,0,0,0.1c-0.1,0.1-0.2,0.1-0.3,0.2 c-0.1,0-0.2-0.1-0.3-0.1c0,0-0.1,0-0.1,0c0,0,0,0,0,0c0.1,0,0.1,0,0.2,0.1l0,0l0,0c-0.1,0-0.1,0-0.2,0h0c0.1,0,0.1,0,0.2,0.1 c0,0,0.1,0,0.1,0c0.3,0,0.6-0.2,0.9-0.2l0,0c0,0,0,0.1,0,0.1c0.1,0,0.1,0,0.2,0.1l0,0c-0.1,0-0.4,0-0.4,0.1c0,0,0.1,0,0.1,0.1l0,0h0 c0,0,0,0.1-0.1,0.1c0,0-0.1,0-0.1,0c-0.1,0-0.3,0-0.3,0.1c0,0,0,0.1,0,0.1c0.3,0.1,0.5,0.1,0.8,0.2l0,0.1c0,0,0,0.1-0.1,0.1 c0,0-0.1,0-0.1,0h0c0,0,0,0,0,0c0,0,0,0,0,0.1c0,0,0.1,0,0.1,0.1c0,0.1,0.4,0.1,0.4,0.3c0,0.1,0.2,0.1,0.2,0.2c0,0,0,0,0,0 c0,0.1-0.1,0.1-0.1,0.1c-0.1,0-0.1,0-0.1,0c0,0,0,0,0,0c-0.1,0-0.2-0.1-0.3-0.1c-0.2-0.1-0.2-0.1-0.3-0.2c-0.1-0.1-0.2-0.1-0.2-0.1 c0,0,0,0,0,0l0,0c0,0,0,0.1-0.1,0.1c-0.2-0.1-0.6-0.2-0.7-0.4l0,0c0.1,0,0.2,0,0.3,0c0,0,0.1,0,0.1,0c0,0,0,0,0.1,0l0,0 c-0.1,0-0.1-0.1,0-0.1c-0.1,0-0.2,0-0.3,0c0,0-0.2-0.1-0.3-0.1c0,0-0.1,0-0.1,0c-0.1,0.1-0.2,0-0.2,0.1c0,0,0,0,0,0c0,0,0,0,0,0l0,0 c0,0,0,0-0.1,0c0,0-0.1,0-0.1,0c-0.1,0-0.4-0.2-0.5-0.2c0,0,0,0,0,0c0,0-0.1,0-0.1,0c0.4,0.1,0.6,0.2,0.8,0.4l0,0c0,0,0,0,0,0 l0.1,0.1c0,0,0.1,0.1,0.1,0.1c0,0,0.1,0,0.1,0c0,0,0,0,0,0l0,0c0,0,0,0.1,0,0.1c0,0,0,0,0,0c0.1,0,0.1,0.1,0.1,0.1 c0.1,0,0.1,0,0.2,0c0.1,0,0.3,0,0.3,0.1c0,0,0,0,0,0.1c-0.1,0.1-0.1,0.1-0.2,0.1h0c-0.1,0-0.1,0-0.2,0c-0.1,0-0.2-0.2-0.2-0.2 c-0.4,0-0.6-0.1-0.8-0.4c0,0-0.1,0-0.2,0.1c0,0,0,0,0,0c-0.1,0-0.3-0.1-0.3-0.2l0,0c0,0,0,0,0,0c-0.1-0.1-0.2-0.2-0.2-0.2 c0,0-0.1,0-0.1,0c-0.1-0.1-0.2-0.2-0.4-0.2c0,0,0,0,0,0c-0.1,0-0.2,0.1-0.4,0.1c0,0-0.1,0-0.1,0c0,0,0,0,0,0c0,0,0,0,0,0.1l0,0 c-0.1,0-0.2,0-0.3-0.1c0,0-0.1,0-0.1,0c-0.1,0-0.3,0-0.4,0c-0.1,0-0.2,0-0.2-0.1c0,0,0,0,0,0c0,0,0,0,0-0.1c0,0,0,0,0,0l0-0.1l0,0 c0,0,0.1,0,0.1,0c0.1,0,0.2,0,0.3-0.1c0,0,0,0,0.1-0.1l0.3-0.1c0.1,0,0.3,0.1,0.5,0.1c0.1,0,0.1,0,0.2,0c0,0,0.1-0.1,0.1-0.1 c0,0,0.1,0,0.1,0c-0.1,0-0.1-0.1-0.2-0.1l0,0C12.6,9,12.6,8.9,12.7,8.9C12.7,8.8,12.7,8.9,12.7,8.9z M3.3,13.8 c0.1-0.6,0.3-1.1,0.6-1.4c0.1-0.1,0.2-0.3,0.4-0.4c0.1-0.2,0.2-0.4,0.3-0.6c0.5-0.6,1.1-1.1,1.8-1.5c0.3-0.1,0.5-0.2,0.8-0.4 c0.2-0.1,0.3-0.2,0.5-0.3C8,8.9,8.5,8.8,9,8.6c0.2-0.1,0.4-0.2,0.6-0.3c0.1,0,0.2,0,0.4,0c0.1,0,0.2,0,0.4,0c0.2,0,0.5,0,0.7-0.1 l0.7,0c0,0,0,0,0.1,0c0.1,0,0.3-0.1,0.4-0.2c0.1,0,0.1,0,0.2-0.1c0,0,0,0,0,0l0,0c0,0,0.1,0,0.1,0c0,0,0,0,0,0.1 c0,0.1,0,0.2-0.1,0.2c-0.1,0-0.2,0-0.2,0c0,0,0,0,0,0c0,0,0,0,0,0c0,0,0,0,0,0.1c-0.2,0-0.3,0-0.5,0.1l-0.6,0.2c-0.1,0-0.3,0-0.4,0 c-0.1,0.1-0.2,0.1-0.3,0.2C10.4,9,10.2,9.1,10,9.2C9.8,9.2,9.6,9.3,9.4,9.3l-0.3,0C8.7,9.5,8.3,9.7,7.9,9.9c0,0,0,0-0.1,0 c-0.1,0-0.1,0-0.1,0c0,0,0,0,0,0c-0.1,0-0.3,0.2-0.4,0.3c-0.1,0.1-0.2,0.1-0.4,0.2c-0.1,0-0.1,0-0.2,0c-0.1,0.1-0.2,0.2-0.4,0.3l0,0 c0,0,0,0,0,0c0-0.1,0-0.1,0.1-0.2c0.2-0.1,0.4-0.2,0.6-0.3c0.1,0,0.1,0,0.2,0l0.3-0.2c0.4-0.2,0.8-0.4,1.2-0.6 c0.2-0.1,0.8-0.2,0.8-0.4c0,0,0,0-0.1-0.1l0,0C9,8.9,8.8,9,8.5,9.1C8.3,9.2,8.1,9.3,7.9,9.4C7.7,9.4,7.6,9.5,7.4,9.5 c-0.4,0.1-0.7,0.4-1,0.6l-0.4,0.2c-0.1,0.1-0.2,0.3-0.3,0.4c-0.2,0.2-0.3,0.2-0.5,0.4c0,0,0.1,0.1,0,0.1l0,0.1l-0.1,0.2 C5,11.6,4.8,11.8,4.6,12c0,0,0,0,0,0c0.1,0,0.2-0.2,0.4-0.3l0,0l0,0L4.9,12L4,13.2c-0.1,0.2-0.2,0.3-0.3,0.5 c-0.1,0.2-0.2,0.5-0.2,0.7c0,0,0,0.2-0.1,0.2c0,0,0,0,0,0c0,0-0.1-0.1-0.1-0.2C3.2,14.2,3.3,13.9,3.3,13.8z M1.8,17.4 c0.1-0.1,0.1-0.1,0.3-0.1l0.1-0.6c0.1-0.1,0.6-0.6,0.6-0.7c0.1-0.4,0.4-0.8,0.6-0.7c0,0,0,0,0,0c0,0,0,0,0,0c0,0.3-0.6,1.3-0.4,1.9 l0,0.4c0,0,0,0.1,0,0.1c0.2,0.3,0.3,0.4,0.4,0.9c0,0,0,0,0.1,0l0.2,0.4C3.8,19,4,19.2,4,19.3c0,0,1,0.3,1.1,0.4 c0.2,0.1,0.3-0.2,0.4-0.2c0.3-0.1,0.6-0.1,0.9,0.1c0,0,0.3,0.1,0.3,0.2l0.5,0.1c-0.4,0.6-1.6,0.5-2.4,0.3l-0.8-0.1 c-1-0.5-1.1-0.6-1.5-1.1l-0.2-0.3c0,0-0.2-0.5-0.2-0.6C2.1,17.9,1.7,17.5,1.8,17.4z M1.2,19.1l0-0.1c0,0,0,0,0-0.1 c0,0-0.1-0.1-0.1-0.1c-0.1,0-0.1,0-0.2,0c0,0,0,0,0,0c0,0,0-0.1,0-0.1c0,0,0,0,0,0c0,0,0.1,0,0.1,0c0,0,0,0,0-0.1 c-0.1-0.1-0.1-0.2-0.1-0.3c0.1,0,0.1,0,0.2,0c0,0,0,0.1,0,0.1c0,0,0,0,0,0c0,0,0,0,0,0c0-0.1-0.1-0.1-0.1-0.3c0,0,0,0,0,0 c0.1,0,0.1,0,0.2,0C1.1,18,1,17.8,1.1,17.7c0,0,0.1-0.1,0.1-0.1c0,0,0.1,0,0.1,0c0,0.1,0,0.2,0,0.3l0.1,0.6c-0.1,0-0.1,0-0.1,0 c0,0,0,0.1,0,0.1c0,0,0,0,0.1,0c0,0,0.1-0.1,0.1-0.1c0,0,0.1,0.1,0.1,0.1c0,0,0,0,0,0c0.1,0,0.2,0.3,0.2,0.4l0,0.1 c0,0.1,0,0.1,0,0.1l0.1,0.3c0,0,0.4,0.4,0.4,0.5c0.6,0.1,0.8,0.2,1.2,0.4c0,0.1,0.1,0.1,0.1,0.2c0.4,0,0.8,0.1,1,0.3c0,0-0.1,0,0,0 c0.2,0.1,0.5,0.1,0.8,0.3c0,0-0.1,0-0.1,0.1c0,0,0,0,0,0l0.5,0.2c0.1,0,0.1,0,0.3,0c0,0,0,0,0,0.1l-0.1,0.1c0,0-0.2,0-0.2,0 c-0.1,0-0.4-0.2-0.4-0.1l-0.7-0.3c0,0-0.3-0.1-0.3,0l-0.1,0.1c0,0.1,0,0.1,0.1,0.2l0.3-0.1c0.1,0,0.2,0.3,0.3,0.3 c0.3,0.2,0.6,0.1,1,0.1c0,0,0,0,0,0c0,0-0.1,0-0.1-0.1c0.3-0.1,0.5,0,0.7-0.1c0-0.1-0.1-0.1,0-0.1c0,0,0.1,0,0.1,0l0-0.1l0.1-0.1 c0.1-0.1,0.2-0.1,0.4-0.2c0.2,0,0.1,0.1,0.2,0.2c0,0.1,0.1,0.1,0.1,0.1c-0.1,0.1-0.2,0.1-0.4,0.2l-0.4,0.3c-0.1,0-0.8,0.2-0.9,0.2 c-0.4,0.1-0.4-0.1-0.7,0c-0.2,0-1-0.2-1.2-0.3c-0.4-0.2-0.3-0.5-0.9-0.5c-0.2-0.2-0.4-0.1-0.6-0.4c0-0.1,0.1-0.1,0.1-0.1 c-0.1,0-0.2-0.1-0.2-0.2C2.4,20.4,3,20.8,3,20.8c-0.3-0.5-0.5-0.3-1-0.6l-0.4-0.4C1.5,19.7,1.2,19.3,1.2,19.1z M3.2,24.2 c-0.3,0.1-0.6-0.9-0.9-1c-0.1-0.1-0.4-0.1-0.5-0.3l0,0c0.2,0,0.8,0.4,0.9,0.5c0,0.1,0,0.2,0.1,0.2c0.1,0.1,0.3,0.1,0.4,0.2 C3.4,23.9,3.3,24.2,3.2,24.2z M3.7,24.9c0,0-0.1,0-0.1,0c-0.1,0-0.3-0.2-0.2-0.3c0,0,0,0,0,0c0,0,0.1,0,0.1,0 C3.7,24.6,3.8,24.7,3.7,24.9C3.7,24.9,3.7,24.9,3.7,24.9z M4.3,24.5c0,0.1,0,0.1,0,0.1h0c-0.1-0.1-0.2-0.1-0.3-0.2c0,0,0,0,0-0.1 c0.1-0.1,0.2-0.1,0.3-0.1c0,0,0.1-0.1,0.1-0.1c0.2,0,0.4,0.3,0.6,0.4c0.1,0,0.2,0,0.3,0.1c0,0,0,0,0,0c0,0,0,0,0,0 C4.9,24.9,4.5,24.6,4.3,24.5C4.3,24.5,4.3,24.5,4.3,24.5z M5.7,25.3C5.7,25.4,5.7,25.4,5.7,25.3c-0.2,0-0.4,0-0.6,0 C5.1,25.3,5,25.1,5,25c0,0,0,0,0,0C5.3,25,5.6,25.2,5.7,25.3L5.7,25.3z M6.3,26.8C6.3,26.8,6.2,26.9,6.3,26.8 c-0.3,0-0.5-0.3-0.4-0.5C6.1,26.3,6.3,26.6,6.3,26.8z M6.1,25.3c0-0.1,0.2-0.1,0.2-0.2l0-0.1c-0.1-0.2-0.5-0.3-0.7-0.4 c-0.4-0.1-0.7-0.3-1-0.4c-0.1,0-0.1,0.1-0.2,0.1c-0.2,0.1-0.5-0.3-0.6-0.4c-0.1-0.1-0.2-0.1-0.2-0.3c0,0,0,0,0,0 c0.1,0,0.2,0,0.2-0.1c0-0.1,0-0.1-0.1-0.2c0-0.1,0-0.1,0-0.2c-0.1-0.1-0.5-0.2-0.6-0.3c0,0-0.3-0.2-0.3-0.2c0-0.1-0.1-0.1-0.1-0.2 c0,0-0.1-0.1-0.1-0.1c0,0,0-0.1,0-0.1c0,0,0-0.1,0-0.1l0,0c0.3,0,0.4,0.2,0.6,0.3c0.1,0.1,0.3,0.1,0.5,0.1c0,0,0,0,0,0 c0,0.1,0,0.1,0,0.1c0.2,0,0.2,0.3,0.6,0.4c0.2,0,0.3,0,0.4-0.1c0.1,0,0.2,0,0.3,0c0,0,0.4-0.1,0.4-0.1c0.1-0.1,0-0.1,0.2-0.2 c0.3-0.1,0.3,0.1,0.4,0.2c0.2,0,0.4-0.1,0.5-0.1c0.2,0,0.4,0.1,0.6,0.1c0.1,0,0.7-0.3,0.9-0.1c0,0,0,0,0,0c0,0.2-0.2,0.4-0.5,0.3 c-0.1,0-0.1-0.1-0.2-0.1c-0.1,0-0.3,0.1-0.3,0.2c-0.1,0-0.2,0-0.3,0c-0.1,0-0.2,0-0.2,0l0,0c0,0,0,0.1,0,0.1c0,0-0.1,0.1-0.1,0.1 c-0.1,0-0.3,0.1-0.5,0.1c-0.1,0-0.4-0.1-0.5,0l0,0c0.1,0.3,0.9,0,1.2,0.1c0.2,0.2,0.5,0.3,0.7,0.4C7.3,24,7.4,24.1,7.5,24 c0,0,0,0,0,0c-0.1-0.1-0.2-0.1-0.3-0.2l0,0c0,0,0,0,0,0c0.2-0.1,0.7-0.1,0.9,0c0.1,0.1,0.2,0.2,0.4,0.3c0.1,0,0.2,0,0.2,0.1 c0,0.1-0.2,0.4-0.3,0.4c0,0.1,0.1,0.1,0.1,0.1c0,0.1,0,0.1,0,0.1l0,0c-0.2,0-0.9-0.2-1-0.1c-0.1,0.2,0.3,0.3,0.4,0.4c0,0,0,0,0,0.1 c0,0-0.1,0-0.1,0.1l0,0c0.1,0.1,0.2,0.1,0.2,0.2c0,0-0.1,0-0.1,0c-0.1,0,0,0.1-0.1,0.1c-0.4-0.1-0.7-0.9-1.3-0.8c0,0,0,0,0,0 C6.5,25,6.6,25,6.7,25.1c0,0-0.1,0.1-0.2,0.1l0,0c0.1,0.1,0.2,0.1,0.4,0.1c0.1,0,0.1,0.1,0.1,0.2c0,0,0.1,0.1,0,0.2l0,0 c-0.2,0-0.6,0-0.7-0.1C6.2,25.5,6.1,25.4,6.1,25.3z M8.4,26.3C8.4,26.3,8.4,26.3,8.4,26.3c-0.1,0-0.8-0.1-0.8-0.1c0-0.1,0-0.1,0-0.1 c0.1,0,0.1-0.1,0.1-0.1c0.3,0,0.4,0.2,0.6,0.2c0-0.1,0-0.1,0.1-0.2c0-0.1-0.1-0.1-0.1-0.2c0.2,0,0.5,0.3,0.4,0.4c-0.1,0-0.2,0-0.4,0 C8.3,26.2,8.4,26.2,8.4,26.3z M7.7,28.4c0,0.1-0.2,0.1-0.4,0.1c0,0,0,0,0,0c0-0.1-0.1-0.1-0.1-0.2c0,0,0,0,0.1,0c0,0,0.1,0,0.1,0 c0.1,0,0.1,0,0.2,0C7.6,28.3,7.8,28.4,7.7,28.4z M7.4,30c-0.3,0-0.6,0-0.8-0.2c0-0.1,0.1-0.1,0.2-0.1c0.2,0,0.3,0,0.5,0 C7.3,29.8,7.3,29.9,7.4,30C7.4,30,7.4,30,7.4,30z M8.1,30.8c-0.2-0.1-0.4-0.3-0.7-0.4c0,0,0.1-0.1,0.1-0.1c0,0,0,0,0,0 c0.3,0,0.5,0.1,0.6,0.3C8.2,30.7,8.1,30.8,8.1,30.8z M8.1,29.1c-0.1-0.1-0.2-0.3-0.1-0.5c0.1,0,0.3,0.2,0.3,0.2 C8.3,29,8.2,29.1,8.1,29.1z M11.8,31.7c-0.1,0-0.3,0.1-0.4,0.1l0,0c0,0,0.1-0.1,0.1-0.1c-0.3,0-0.6,0.1-0.7,0c0,0,0,0,0-0.1 c0.1,0,0.2,0,0.4,0c0.1,0,0.3-0.1,0.5-0.1c0,0,0,0.1,0,0.1c0,0,0.1,0,0.1,0C11.8,31.6,11.9,31.6,11.8,31.7 C11.9,31.7,11.8,31.7,11.8,31.7z M13.5,31.8c-0.1,0-0.3,0-0.5,0c-0.2,0.1-0.3,0.3-0.6,0.3c0,0,0,0,0,0c0-0.4,0.1-0.2,0.4-0.2 c0,0,0,0,0.1-0.1c0.1-0.1,0.3,0,0.5-0.1c0.1,0,0.1,0,0.2,0C13.5,31.7,13.5,31.7,13.5,31.8C13.5,31.7,13.5,31.8,13.5,31.8z M13.7,30.7c-0.1,0-0.3,0-0.4,0.1c0,0,0,0,0,0.1c-0.1,0-0.1,0-0.2,0c0,0,0,0-0.1,0c-0.1,0-0.5-0.1-0.6,0c0,0-0.1,0.1-0.1,0.1 c0,0-0.1,0.1-0.1,0.1l0,0c0.1,0,0.2,0,0.2,0.1c0,0,0,0,0,0c-0.1,0.1-0.1,0-0.2,0c0,0,0,0,0,0c0,0,0,0,0,0.1c-0.2,0-0.4,0.2-0.7,0.1 c0,0,0-0.1,0-0.1c-0.2,0-0.3,0.1-0.5,0c-0.3,0-0.7-0.1-1,0c0,0.1,0,0.1,0,0.1c0,0,0.1,0.2,0.2,0.2l-0.1,0c-0.2-0.1-0.4,0-0.6-0.2 c0.1-0.1,0.3,0,0.4,0l0,0c0,0,0,0,0,0c0,0-0.1,0-0.1-0.1c0,0,0,0,0,0c0.1,0,0.3,0,0.3,0c0,0,0,0,0,0c-0.1,0-0.2-0.1-0.4-0.1 c-0.2,0-0.3,0.1-0.4,0.1c0,0-0.3-0.1-0.3-0.1h0c0,0,0,0,0,0c0,0,0,0,0,0c0,0-0.1,0-0.1-0.1c0,0,0,0,0-0.1c0.2,0,0.3,0,0.4-0.1 c0,0,0-0.1,0-0.1c-0.3-0.1-0.5-0.1-0.8-0.2l0,0c0,0,0,0,0,0c0,0,0.1,0,0.1,0v0c0-0.1-0.1-0.2-0.1-0.4c0,0,0,0,0,0c0,0,0.1,0,0.1,0 c0.1,0,0.3,0,0.4,0L9.1,30c0.1,0,0.7,0.2,0.7,0.3c-0.1,0-0.3,0-0.4,0.1h0c0,0,0,0,0,0c0.2,0,0.4,0,0.6,0c0.1,0,0.2,0,0.3,0 c0,0,0,0,0-0.1c0.2,0,0.5,0.3,0.8,0.3c0.1,0,0.2-0.1,0.2-0.1l0,0c-0.3-0.1-0.6-0.1-0.8-0.4c0,0,0,0,0-0.1c0,0,0.1,0,0.1,0v0 c0,0,0,0,0,0c0,0-0.1,0-0.2,0c-0.1,0-0.1-0.1-0.2-0.1c0,0,0-0.1,0-0.1c-0.1,0-0.1-0.1-0.2-0.2c-0.3,0-0.4-0.1-0.4-0.4l0,0 c0.2,0,0.4,0.1,0.5,0.3c0.2,0,0.4,0,0.5,0.1c0.1,0.1,0.2,0.2,0.3,0.2c0.2-0.1,0.3,0,0.4,0.1c0,0,0,0,0,0.1c0.1,0.1,0.7,0.4,0.8,0.5 c0.2,0,0.2-0.1,0.3-0.1c0.1,0,0.1,0,0.2,0c0,0,0,0,0,0l0,0c0,0,0,0-0.1-0.1l0,0c0.1,0,0.2,0,0.3,0c0.3,0,0.5-0.1,0.7,0 c0,0.1,0,0.1,0,0.1c0,0,0,0-0.1,0c0,0,0,0,0,0c0,0,0,0,0,0C13.6,30.6,13.7,30.6,13.7,30.7L13.7,30.7C13.7,30.7,13.7,30.7,13.7,30.7z M9.1,29L9.1,29c0.3,0,0.5,0.1,0.6,0.3c0,0,0,0,0,0C9.4,29.3,9.1,29.3,9.1,29z M21.9,26.1c-0.3,0.4-1,1.6-1.5,1.9 c-0.1,0.1-0.5,0.4-0.6,0.4c-0.1,0.1-0.4,0.3-0.5,0.3c-0.1,0.1-0.4,0.1-0.5,0.2c-0.4,0.3-0.6,0.4-1.2,0.6c-0.3,0.1-0.9,0.1-1.1,0.2 c-0.3,0.1-0.7,0.1-1.1,0c-0.3,0-0.4-0.1-0.7-0.1c-0.2,0-0.3,0-0.4,0.1c-0.1,0.1-0.3,0-0.5,0.1c-0.4,0.1-1,0.1-1.4,0 c-0.2,0-0.4-0.1-0.5-0.2c0,0,0,0,0,0c0.3-0.1,0.7-0.1,1-0.2c0.1,0,0.3-0.1,0.2-0.2c0-0.1-0.1-0.1-0.2-0.1c-0.1-0.1-0.3-0.2-0.5-0.1 c-0.1,0-0.3,0-0.4,0c-0.2,0-0.3-0.1-0.5-0.1c-0.1,0-0.2,0-0.3,0l-0.1-0.1c0,0-0.1,0-0.1,0c-0.2,0-0.4-0.1-0.7-0.1 c-0.2,0-0.4-0.1-0.5-0.1l0,0.1l-0.1,0c-0.1,0-0.3-0.1-0.3-0.1c0,0,0,0,0,0c0.1,0,0.1,0,0.2,0l0,0c0,0-0.2-0.1-0.3-0.1 c-0.1,0-0.2,0.2-0.3,0c0,0,0,0,0,0c0,0,0.1,0,0.1,0c0,0,0,0,0,0c-0.1,0-0.4-0.1-0.4-0.2c0.2-0.1,0.1,0,0.3,0l0,0c0,0,0,0,0,0 c-0.1,0-0.3-0.1-0.4-0.1l0,0c0,0,0,0,0,0c0,0,0.1,0,0.1-0.1c-0.2,0-0.4-0.1-0.6-0.2c0,0,0-0.1,0-0.1c0,0,0.1,0,0.1,0 c0.1,0,0.4,0.3,0.5,0.1c-0.1-0.1-0.2-0.3-0.4-0.3c-0.1,0-0.1,0-0.1,0c-0.1-0.1-0.2-0.1-0.3-0.1l0,0l0,0c0.1-0.1,0.2,0.1,0.3,0.1 c0.3-0.1,0.4,0,0.6,0.1c0.1,0,0.2,0,0.2,0.1c0,0,0,0,0,0c-0.1,0-0.1,0-0.2,0.1l0,0c0.1,0.1,0.2,0.2,0.4,0.2c0.1,0,0.1,0,0.2,0.1 c0,0,0,0,0,0c0,0-0.1,0-0.1,0c0,0,0,0,0,0c0,0,0,0,0,0c0.1,0.1,0.1,0,0.2,0c0.1,0,0.2,0,0.2,0c0.2,0,0.5,0.1,0.6,0.2 c0.1,0,0.1,0.2,0.2,0.2c0.3,0,0.5,0,0.8,0c0.2,0,0.2,0.1,0.4,0.1c0,0,0.1,0,0.1,0l0,0c0,0.1,0.1,0.1,0.1,0.1c0.1,0,0.2,0.1,0.4,0 c0.3-0.1,0.5-0.1,0.8-0.1l0.4,0c0.1,0,0.1,0.1,0.2,0.1c0.1,0,0.1,0,0.2,0c0.2,0,0.3,0,0.5,0c0.2,0,0.3,0,0.5,0c0.1,0,0.3,0,0.4,0 c0.3,0,0.4-0.1,0.8-0.1c0,0,0.3,0,0.3,0c0,0,0.2,0,0.2,0l0.4,0c0.1,0,0.1,0,0.1,0c0.1,0,0.4-0.2,0.5-0.2c0,0,0,0,0.1,0.1 c0,0-0.3,0.3-0.3,0.3c0,0-0.5,0.1-0.6,0.1c0,0,0,0-0.1,0c-0.1,0-0.2,0-0.4,0.1C16.3,29,16,29,15.7,29c-0.2,0-0.5,0-0.6,0 c0,0,0,0,0,0c-0.1,0-0.1,0-0.1,0.1l0,0c0.1,0.2,0.5-0.1,0.8,0c0.2,0,0.3,0.1,0.5,0.1c0.4,0.1,0.8-0.1,1.1-0.2c0.1,0,0.3,0,0.4-0.1 c0.1-0.1,0.2-0.2,0.3-0.2c0.2,0,0.4-0.1,0.6-0.1c0,0,0,0,0,0c0,0,0,0,0,0l0.4-0.3l0.3-0.2c-0.1,0-0.6,0.2-0.7,0.2l0.2-0.2 c0.3-0.2,0.6-0.2,0.9-0.4c0.1-0.1,0.2-0.1,0.3-0.2c0.1-0.1,0.2-0.1,0.3-0.1c0.2-0.1,1.5-1.8,1.7-1.8c0,0,0,0,0,0 C22.1,25.8,22,26.1,21.9,26.1z"></path> <polyline points="4.6,12.1 4.6,12.1 4.6,12.1 4.6,12.1 "></polyline> </svg> 