<?xml version="1.0" encoding="UTF-8"?> <!-- Generator: Adobe Illustrator 16.0.0, SVG Export Plug-In . SVG Version: 6.00 Build 0) --> <svg xmlns="http://www.w3.org/2000/svg" xmlns:xlink="http://www.w3.org/1999/xlink" id="Layer_1" x="0px" y="0px" width="90.812px" height="29.101px" viewBox="0 0 90.812 29.101" xml:space="preserve"> <g> <path fill="#FF8144" d="M35.083,6.368c2.237,0,3.473-1.66,3.473-3.435C38.556,1.158,37.359,0,35.584,0 c-1.813,0-3.474,1.235-3.474,3.589C32.11,5.249,33.346,6.368,35.083,6.368z"></path> <path fill="#FF8144" d="M90.812,15.554c0-0.501-0.192-0.926-0.502-1.274c-1.544,1.583-3.396,2.007-4.669,2.239 c0.231-2.664-0.928-4.825-3.243-5.249c-0.385-1.39-1.467-2.2-3.512-2.2c-6.252,0-10.498,7.102-10.498,12.698 c0,0.128,0.002,0.255,0.006,0.381c-1.765,1.254-4.208,2.397-6.759,2.397c-0.812,0-1.583-0.271-1.854-1.081 c4.632-1.119,9.765-4.207,9.765-9.61c0-2.972-1.891-4.4-5.095-4.4c-5.943,0-9.996,6.6-9.996,12.351 c0,0.525,0.032,1.035,0.098,1.524c-0.617,0.439-1.273,0.714-1.911,0.714c-1.041,0-1.505-0.463-1.505-1.775 c0-5.365,6.831-15.361,6.831-19.799c0-1.235-0.81-2.084-2.276-2.084c-3.011,0-4.786,3.782-6.33,8.838 c-0.386-0.039-0.849-0.039-1.235-0.039c-7.41,0-12.659,6.407-12.659,13.509c0,0.242,0.009,0.479,0.024,0.711 c-0.53,0.372-1.088,0.601-1.646,0.601c-0.463,0-0.81-0.193-0.81-0.811c0-1.93,2.895-6.446,2.895-10.189 c0-2.354-1.621-3.242-3.319-3.242c-0.965,0-2.2,0.425-2.2,0.425c0.01,1.465-0.169,2.842-0.444,4.151 c-0.577,0.153-1.238,0.283-1.986,0.364c0,0,0.038-0.193,0.038-0.463c0-3.048-1.582-5.094-4.13-5.094 c-2.16,0-3.666,1.968-3.666,4.708c0,1.737,0.889,3.126,2.2,4.091c-0.888,3.281-3.86,5.751-5.905,5.751 c-0.463,0-0.618-0.309-0.618-0.578c0-2.586,2.471-6.485,2.471-9.418c0-2.47-1.736-3.627-3.474-3.627 c-0.965,0-1.62,0.424-1.62,0.424c-0.155,5.403-3.976,13.199-6.601,13.199c-0.617,0-0.927-0.424-0.927-1.081 c0-2.083,2.509-6.176,2.509-9.263c0-2.432-1.582-3.319-3.28-3.319c-1.428,0-2.007,0.501-2.007,0.501 C2.972,15.129,0,19.336,0,23.929c0,3.474,2.084,4.979,4.516,4.979c4.168,0,5.751-3.436,5.751-3.436c0,2.239,1.39,3.396,3.705,3.396 c5.21,0,10.768-4.708,13.007-9.88c0.616-0.029,1.187-0.087,1.712-0.17c-0.775,2.354-1.52,4.521-1.52,6.654 c0,2.316,1.544,3.628,4.245,3.628c2.077,0,3.987-0.764,5.483-1.846c0.94,1.111,2.344,1.769,4.204,1.769 c3.782,0,5.403-2.315,5.403-2.315s0.54,2.354,3.859,2.354c2.2,0,4.204-0.84,5.729-2.011c1.068,1.229,2.698,1.973,5,1.973 c3.196,0,6.258-1.171,8.406-2.705c1.11,1.783,3.009,2.705,5.487,2.705c5.018,0,8.685-4.322,10.073-8.993 C88.459,19.529,90.812,17.522,90.812,15.554z M47.278,16.905c-0.849,3.396-2.007,7.603-4.939,7.603c-0.927,0-1.66-0.501-1.66-1.736 c0-5.018,3.01-9.417,7.487-9.379L47.278,16.905z M63.874,13.895c0.501,0,0.733,0.347,0.733,0.81c0,2.084-2.199,3.976-4.902,4.863 C60.207,17.174,61.828,13.895,63.874,13.895z M75.876,24.624c-1.234,0-1.931-1.235-1.931-2.894c0-4.168,2.472-8.684,4.902-8.916 c-0.309,0.656-0.463,1.428-0.463,2.432c0,1.543,0.656,2.933,1.93,3.937C79.581,22.038,77.729,24.624,75.876,24.624z"></path> </g> </svg> 