<?xml version="1.0" encoding="UTF-8"?> <!-- Generator: Adobe Illustrator 16.0.0, SVG Export Plug-In . SVG Version: 6.00 Build 0) --> <svg xmlns="http://www.w3.org/2000/svg" xmlns:xlink="http://www.w3.org/1999/xlink" id="Layer_1" x="0px" y="0px" width="118.235px" height="48.111px" viewBox="0 0 118.235 48.111" xml:space="preserve"> <g> <path fill-rule="evenodd" clip-rule="evenodd" fill="#8F908F" d="M4.234,42.375c-1.373,0-2.719-0.164-3.812-0.441l0.168-2.848 c1.065,0.385,2.552,0.689,3.926,0.689c2.075,0,3.757-0.856,3.757-2.877C8.272,32.971,0,34.63,0,28.601 c0-3.207,2.553-5.448,6.956-5.448c1.121,0,2.271,0.139,3.421,0.333l-0.169,2.682c-1.094-0.332-2.298-0.525-3.42-0.525 c-2.356,0-3.562,1.078-3.562,2.628c0,3.734,8.273,2.351,8.273,8.187C11.499,39.887,8.75,42.375,4.234,42.375L4.234,42.375z"></path> <path fill-rule="evenodd" clip-rule="evenodd" fill="#8F908F" d="M20.218,30.511c-2.243,0-3.448,2.6-3.448,4.949v4.233 c0.645,0.193,1.346,0.275,2.188,0.275c2.383,0,4.01-1.438,4.01-5.146C22.967,32.06,22.097,30.511,20.218,30.511L20.218,30.511z M18.872,42.292c-0.785,0-1.374-0.027-2.103-0.166v5.984h-3V28.352h2.831c0,0.721-0.028,1.826-0.167,2.572h0.056 c0.784-1.742,2.383-2.848,4.514-2.848c3.309,0,5.132,2.321,5.132,6.473C26.135,39.387,23.528,42.292,18.872,42.292L18.872,42.292z"></path> <path fill-rule="evenodd" clip-rule="evenodd" fill="#8F908F" d="M35.757,30.98c-2.776-0.498-4.122,1.412-4.122,5.532v5.587h-3.001 V28.352h2.86c0,0.776-0.084,1.992-0.281,3.044h0.057c0.617-1.855,2.02-3.568,4.628-3.319L35.757,30.98L35.757,30.98z"></path> <path fill-rule="evenodd" clip-rule="evenodd" fill="#8F908F" d="M38.527,28.352h2.999v13.747h-2.999V28.352L38.527,28.352z M40.041,26.306c-1.066,0-1.935-0.828-1.935-1.854c0-1.023,0.868-1.854,1.935-1.854c1.037,0,1.906,0.803,1.906,1.854 C41.947,25.478,41.078,26.306,40.041,26.306L40.041,26.306z"></path> <path fill-rule="evenodd" clip-rule="evenodd" fill="#8F908F" d="M53.867,42.099v-8.852c0-1.715-0.478-2.709-2.075-2.709 c-2.103,0-3.646,2.185-3.646,4.922v6.639h-3V28.352h2.859c0,0.721-0.057,1.908-0.195,2.683l0.028,0.028 c0.812-1.77,2.495-2.986,4.851-2.986c3.168,0,4.15,1.963,4.15,4.397v9.625H53.867L53.867,42.099z"></path> <path fill-rule="evenodd" clip-rule="evenodd" fill="#8F908F" d="M65.107,42.347c-2.975,0-3.872-1.135-3.872-4.203v-7.496h-2.662 v-2.296h2.662v-4.369l2.974-0.802v5.171h3.674v2.296h-3.646v6.584c0,2.047,0.421,2.6,1.822,2.6c0.618,0,1.291-0.084,1.823-0.221 v2.432C67.067,42.21,66.03,42.347,65.107,42.347L65.107,42.347z"></path> <path fill-rule="evenodd" clip-rule="evenodd" fill="#8F908F" d="M93.963,33.449c4.688-5.951,8.376-12.941,8.376-17.962 c0-2.623-1.907-4.454-4.391-5.847C97.995,15.096,96.079,27.888,93.963,33.449L93.963,33.449z"></path> <path fill-rule="evenodd" clip-rule="evenodd" fill="#8F908F" d="M78.593,48.111c10.987-3.625,26.91-12.068,37.988-19.613 c0.927-0.63,1.654-1.219,1.654-2.24c0-1.785-3.312-4.173-4.919-5.124C104.603,30.07,87.26,43.455,78.593,48.111L78.593,48.111z"></path> <path fill-rule="evenodd" clip-rule="evenodd" fill="#8F908F" d="M88.786,40.521c6.771-4.621,16.613-13.309,19.942-18.036 c0.784-1.113,1.364-1.757,1.364-2.921c0-1.907-2.254-3.307-3.879-4.278C102.326,24.328,93.586,35.585,88.786,40.521L88.786,40.521z "></path> <path fill-rule="evenodd" clip-rule="evenodd" fill="#8F908F" d="M94.955,27.709c0.877-5.709,0.362-12.603-0.756-16.927 c-0.607-2.353-2.762-5.011-4.75-5.841C92.056,12.248,94.297,22.65,94.955,27.709L94.955,27.709z"></path> <path fill-rule="evenodd" clip-rule="evenodd" fill="#8F908F" d="M93.026,19.701C90.972,14.228,85.859,2.825,78.335,0 C83.232,5.332,90.5,15.912,93.026,19.701L93.026,19.701z"></path> <polygon fill-rule="evenodd" clip-rule="evenodd" fill="#8F908F" points="100.635,40.541 100.635,42.099 100.391,42.099 100.391,40.541 99.879,40.541 99.879,40.339 101.15,40.339 101.15,40.541 100.635,40.541 "></polygon> <path fill="none" stroke="#FFFFFF" stroke-width="0.6366" stroke-miterlimit="2.6131" d="M103.158,41.083 c-0.028-0.201-0.044-0.329-0.056-0.433"></path> <path fill-rule="evenodd" clip-rule="evenodd" fill="#8F908F" d="M69.841,23.844h-0.153v0.413h0.099 c0.22,0,0.288-0.121,0.288-0.228C70.074,23.901,70.012,23.844,69.841,23.844L69.841,23.844z M70.085,24.978L69.7,24.392h-0.013 v0.586h-0.209v-1.3h0.376c0.311,0,0.434,0.127,0.434,0.323c0,0.224-0.14,0.357-0.356,0.381c0.029,0.033,0.08,0.105,0.131,0.184 l0.288,0.412H70.085L70.085,24.978z M69.854,23.404c-0.517,0-0.93,0.413-0.93,0.922s0.413,0.943,0.93,0.943 c0.514,0,0.927-0.413,0.927-0.922C70.781,23.839,70.368,23.404,69.854,23.404L69.854,23.404z M69.854,25.493 c-0.67,0-1.174-0.509-1.174-1.155c0-0.638,0.526-1.157,1.174-1.157c0.66,0,1.172,0.503,1.172,1.157 C71.026,24.962,70.488,25.493,69.854,25.493L69.854,25.493z"></path> <path fill-rule="evenodd" clip-rule="evenodd" fill="#8F908F" d="M103.312,42.099l-0.152-1.017 c-0.027-0.201-0.044-0.329-0.054-0.433h-0.006c-0.019,0.082-0.048,0.192-0.088,0.317l-0.382,1.132h-0.26l-0.361-1.056 c-0.044-0.134-0.094-0.279-0.114-0.394h-0.002c-0.011,0.143-0.031,0.283-0.051,0.457l-0.121,0.992h-0.248l0.261-1.76h0.299 l0.376,1.108c0.044,0.126,0.078,0.243,0.101,0.349h0.005c0.025-0.122,0.053-0.209,0.095-0.334l0.389-1.123h0.302l0.268,1.76 H103.312L103.312,42.099z"></path> </g> </svg> 