<?xml version="1.0" encoding="UTF-8"?> <!-- Generator: Adobe Illustrator 16.0.0, SVG Export Plug-In . SVG Version: 6.00 Build 0) --> <svg xmlns="http://www.w3.org/2000/svg" xmlns:xlink="http://www.w3.org/1999/xlink" id="Layer_1" x="0px" y="0px" width="151.979px" height="55.456px" viewBox="0 0 151.979 55.456" xml:space="preserve"> <g> <g> <path fill="#8F908F" d="M29.428,5.675c0,0.913-0.168,1.683-0.508,2.308c-0.339,0.626-0.796,1.13-1.37,1.514 c-0.572,0.382-1.235,0.661-1.987,0.837c-0.75,0.177-1.53,0.266-2.34,0.266h-1.877v5.896H17.57V0.86h5.741 c0.854,0,1.652,0.085,2.396,0.255C26.45,1.284,27.1,1.557,27.65,1.933c0.552,0.375,0.985,0.869,1.304,1.479 C29.27,4.023,29.428,4.776,29.428,5.675z M25.651,5.695c0-0.366-0.073-0.669-0.22-0.903c-0.148-0.235-0.347-0.419-0.598-0.554 c-0.25-0.131-0.533-0.22-0.849-0.264c-0.318-0.045-0.645-0.066-0.982-0.066h-1.657v3.688h1.59c0.354,0,0.692-0.029,1.016-0.089 c0.324-0.058,0.616-0.161,0.872-0.309c0.259-0.146,0.46-0.342,0.608-0.585C25.578,6.371,25.651,6.065,25.651,5.695z"></path> <path fill="#8F908F" d="M37.929,8.479c-0.162-0.043-0.319-0.073-0.475-0.089c-0.154-0.014-0.306-0.021-0.452-0.021 c-0.486,0-0.896,0.088-1.226,0.264c-0.331,0.176-0.597,0.39-0.796,0.639c-0.198,0.25-0.342,0.521-0.431,0.815 c-0.088,0.293-0.131,0.55-0.131,0.771v5.637h-3.622V5.513h3.489v1.588h0.044c0.279-0.562,0.677-1.021,1.193-1.377 c0.515-0.356,1.11-0.535,1.788-0.535c0.146,0,0.289,0.008,0.43,0.023c0.141,0.014,0.255,0.036,0.342,0.065L37.929,8.479z"></path> <path fill="#8F908F" d="M50.295,11.129c0,0.148,0,0.295,0,0.441s-0.008,0.287-0.021,0.418h-7.972 c0.029,0.312,0.121,0.59,0.275,0.841c0.155,0.25,0.354,0.467,0.597,0.652c0.243,0.185,0.515,0.328,0.817,0.429 c0.301,0.104,0.614,0.156,0.938,0.156c0.574,0,1.061-0.107,1.458-0.321c0.396-0.214,0.721-0.488,0.971-0.828l2.518,1.591 c-0.515,0.75-1.196,1.328-2.042,1.733c-0.847,0.404-1.83,0.607-2.948,0.607c-0.825,0-1.604-0.13-2.34-0.388 c-0.736-0.257-1.381-0.632-1.933-1.126c-0.553-0.493-0.986-1.1-1.303-1.822c-0.316-0.721-0.475-1.545-0.475-2.471 c0-0.898,0.154-1.713,0.464-2.441c0.309-0.729,0.729-1.347,1.259-1.854c0.528-0.509,1.154-0.903,1.876-1.183 c0.723-0.279,1.501-0.419,2.341-0.419c0.81,0,1.554,0.137,2.23,0.408s1.259,0.666,1.744,1.181 c0.485,0.517,0.864,1.141,1.137,1.879C50.159,9.348,50.295,10.187,50.295,11.129z M46.961,9.737c0-0.574-0.181-1.066-0.541-1.479 s-0.901-0.618-1.624-0.618c-0.353,0-0.677,0.055-0.972,0.166c-0.294,0.11-0.551,0.26-0.772,0.452 c-0.22,0.191-0.397,0.415-0.53,0.672c-0.131,0.26-0.206,0.528-0.22,0.807H46.961z"></path> <path fill="#8F908F" d="M59.26,8.744c-0.294-0.279-0.641-0.516-1.037-0.707c-0.399-0.19-0.817-0.287-1.259-0.287 c-0.339,0-0.652,0.065-0.939,0.2c-0.287,0.132-0.431,0.36-0.431,0.685c0,0.309,0.158,0.528,0.475,0.661 c0.318,0.133,0.828,0.279,1.535,0.441c0.412,0.089,0.828,0.214,1.248,0.376s0.799,0.376,1.137,0.642 c0.339,0.264,0.61,0.588,0.816,0.971c0.207,0.382,0.311,0.839,0.311,1.369c0,0.691-0.141,1.276-0.42,1.755 s-0.645,0.866-1.094,1.159c-0.449,0.295-0.953,0.507-1.512,0.64c-0.56,0.134-1.12,0.2-1.68,0.2c-0.897,0-1.775-0.144-2.638-0.431 c-0.861-0.287-1.579-0.71-2.153-1.271l2.031-2.142c0.324,0.353,0.721,0.647,1.193,0.883c0.471,0.235,0.971,0.354,1.501,0.354 c0.295,0,0.585-0.07,0.872-0.211c0.287-0.139,0.431-0.387,0.431-0.739c0-0.339-0.177-0.59-0.529-0.751 c-0.354-0.162-0.906-0.33-1.656-0.508c-0.383-0.088-0.765-0.206-1.148-0.354s-0.726-0.346-1.026-0.596 c-0.303-0.251-0.549-0.56-0.741-0.928c-0.19-0.368-0.287-0.81-0.287-1.324c0-0.663,0.141-1.225,0.421-1.689 c0.279-0.464,0.641-0.843,1.081-1.136c0.442-0.297,0.932-0.514,1.47-0.654c0.535-0.139,1.07-0.208,1.601-0.208 c0.824,0,1.63,0.129,2.418,0.386c0.786,0.258,1.452,0.645,1.997,1.16L59.26,8.744z"></path> <path fill="#8F908F" d="M74.362,11.129c0,0.148,0,0.295,0,0.441s-0.008,0.287-0.021,0.418h-7.972 c0.029,0.312,0.123,0.59,0.276,0.841c0.154,0.25,0.354,0.467,0.596,0.652c0.243,0.185,0.515,0.328,0.817,0.429 c0.303,0.104,0.614,0.156,0.938,0.156c0.575,0,1.061-0.107,1.459-0.321c0.397-0.214,0.72-0.488,0.972-0.828l2.518,1.591 c-0.517,0.75-1.198,1.328-2.044,1.733c-0.847,0.404-1.83,0.607-2.948,0.607c-0.824,0-1.604-0.13-2.34-0.388 c-0.736-0.257-1.379-0.632-1.933-1.126c-0.551-0.493-0.984-1.1-1.303-1.822c-0.316-0.721-0.475-1.545-0.475-2.471 c0-0.898,0.154-1.713,0.464-2.441c0.309-0.729,0.729-1.347,1.259-1.854c0.53-0.509,1.156-0.903,1.877-1.183 c0.722-0.279,1.502-0.419,2.34-0.419c0.811,0,1.554,0.137,2.23,0.408c0.678,0.271,1.259,0.666,1.744,1.181 c0.486,0.517,0.865,1.141,1.139,1.879C74.227,9.348,74.362,10.187,74.362,11.129z M71.028,9.737c0-0.574-0.181-1.066-0.541-1.479 s-0.901-0.618-1.624-0.618c-0.351,0-0.676,0.055-0.97,0.166c-0.295,0.11-0.553,0.26-0.774,0.452 c-0.22,0.191-0.396,0.415-0.528,0.672c-0.133,0.26-0.208,0.528-0.222,0.807H71.028z"></path> <path fill="#8F908F" d="M84.078,16.495v-6.006c0-0.309-0.025-0.604-0.078-0.883c-0.052-0.281-0.136-0.527-0.253-0.74 c-0.118-0.213-0.282-0.383-0.497-0.508c-0.213-0.126-0.482-0.188-0.806-0.188c-0.324,0-0.606,0.062-0.85,0.188 c-0.243,0.125-0.446,0.298-0.608,0.518c-0.161,0.222-0.282,0.477-0.364,0.762c-0.081,0.289-0.121,0.585-0.121,0.894v5.964h-3.645 V5.497h3.512v1.524h0.044c0.133-0.235,0.306-0.468,0.52-0.696c0.213-0.227,0.463-0.422,0.75-0.584 c0.287-0.161,0.601-0.295,0.939-0.396c0.338-0.104,0.699-0.156,1.082-0.156c0.735,0,1.36,0.133,1.877,0.397 c0.516,0.266,0.932,0.607,1.248,1.027c0.315,0.421,0.543,0.901,0.684,1.447c0.14,0.543,0.21,1.089,0.21,1.634v6.801H84.078z"></path> <path fill="#8F908F" d="M94.633,8.191v4.213c0,0.517,0.1,0.904,0.3,1.164c0.198,0.258,0.554,0.388,1.068,0.388 c0.178,0,0.365-0.016,0.564-0.046c0.198-0.027,0.364-0.073,0.497-0.131l0.043,2.649c-0.25,0.087-0.566,0.165-0.948,0.23 c-0.384,0.067-0.767,0.102-1.148,0.102c-0.736,0-1.354-0.094-1.854-0.278c-0.501-0.184-0.902-0.449-1.203-0.797 c-0.303-0.346-0.52-0.76-0.652-1.239S91.1,13.431,91.1,12.841V8.191h-1.766V5.497h1.744V2.605h3.555v2.892h2.584v2.694H94.633z"></path> <path fill="#8F908F" d="M99.006,7c0.647-0.618,1.402-1.081,2.262-1.392c0.861-0.309,1.741-0.463,2.64-0.463 c0.927,0,1.711,0.113,2.351,0.343c0.642,0.228,1.159,0.58,1.559,1.06c0.396,0.477,0.687,1.082,0.872,1.811 c0.185,0.729,0.274,1.593,0.274,2.595v5.542h-3.312v-1.171h-0.065c-0.281,0.457-0.704,0.81-1.271,1.061 c-0.567,0.25-1.181,0.376-1.844,0.376c-0.441,0-0.896-0.06-1.368-0.178c-0.473-0.117-0.901-0.309-1.293-0.574 c-0.39-0.266-0.71-0.617-0.961-1.06c-0.25-0.441-0.374-0.987-0.374-1.635c0-0.794,0.217-1.436,0.651-1.922 c0.434-0.485,0.994-0.861,1.678-1.124c0.685-0.266,1.445-0.442,2.285-0.531c0.841-0.089,1.656-0.131,2.452-0.131V9.429 c0-0.544-0.192-0.945-0.574-1.203c-0.384-0.257-0.854-0.387-1.415-0.387c-0.515,0-1.011,0.111-1.489,0.331 c-0.479,0.22-0.888,0.486-1.225,0.795L99.006,7z M105.651,11.703h-0.463c-0.398,0-0.8,0.02-1.205,0.055 c-0.404,0.037-0.764,0.107-1.081,0.21c-0.316,0.104-0.577,0.255-0.783,0.453c-0.207,0.198-0.311,0.46-0.311,0.783 c0,0.207,0.049,0.384,0.144,0.53c0.097,0.148,0.219,0.265,0.365,0.353c0.146,0.089,0.316,0.151,0.509,0.189 c0.189,0.037,0.374,0.054,0.551,0.054c0.736,0,1.299-0.201,1.689-0.606c0.39-0.406,0.585-0.953,0.585-1.645V11.703z"></path> <path fill="#8F908F" d="M115.61,8.191v4.213c0,0.517,0.1,0.904,0.298,1.164c0.198,0.258,0.556,0.388,1.07,0.388 c0.176,0,0.365-0.016,0.564-0.046c0.198-0.027,0.363-0.073,0.496-0.131l0.044,2.649c-0.25,0.087-0.566,0.165-0.95,0.23 c-0.381,0.067-0.765,0.102-1.146,0.102c-0.738,0-1.355-0.094-1.855-0.278c-0.5-0.184-0.901-0.449-1.203-0.797 c-0.302-0.346-0.519-0.76-0.651-1.239s-0.199-1.016-0.199-1.605V8.191h-1.767V5.497h1.744V2.605h3.556v2.892h2.583v2.694H115.61z"></path> <path fill="#8F908F" d="M124.066,1.987c0,0.279-0.054,0.541-0.165,0.785c-0.11,0.241-0.257,0.452-0.441,0.629 c-0.184,0.176-0.405,0.316-0.663,0.419c-0.257,0.104-0.525,0.154-0.805,0.154c-0.59,0-1.083-0.194-1.48-0.585 c-0.396-0.39-0.596-0.858-0.596-1.402c0-0.265,0.052-0.52,0.156-0.761c0.102-0.244,0.249-0.454,0.439-0.629 c0.191-0.178,0.412-0.321,0.663-0.431C121.426,0.055,121.697,0,121.992,0c0.279,0,0.548,0.052,0.805,0.154 c0.258,0.104,0.479,0.243,0.663,0.42c0.185,0.176,0.331,0.387,0.441,0.63C124.013,1.446,124.066,1.708,124.066,1.987z M120.181,16.495V5.497h3.621v10.998H120.181z"></path> <path fill="#8F908F" d="M138.573,10.953c0,0.898-0.161,1.711-0.485,2.439s-0.766,1.347-1.324,1.855 c-0.561,0.507-1.208,0.901-1.943,1.181s-1.523,0.42-2.362,0.42c-0.825,0-1.608-0.141-2.353-0.42s-1.39-0.674-1.942-1.181 c-0.552-0.509-0.99-1.127-1.313-1.855c-0.324-0.729-0.486-1.541-0.486-2.439s0.162-1.708,0.486-2.429 c0.323-0.723,0.762-1.333,1.313-1.833c0.553-0.501,1.198-0.884,1.942-1.148c0.744-0.266,1.527-0.397,2.353-0.397 c0.839,0,1.627,0.132,2.362,0.397c0.735,0.265,1.383,0.647,1.943,1.148c0.559,0.5,1,1.11,1.324,1.833 C138.412,9.245,138.573,10.055,138.573,10.953z M135.085,10.953c0-0.354-0.06-0.699-0.177-1.039 c-0.118-0.339-0.286-0.637-0.508-0.895c-0.22-0.257-0.493-0.468-0.816-0.63c-0.324-0.161-0.7-0.241-1.126-0.241 c-0.428,0-0.804,0.08-1.127,0.241c-0.324,0.162-0.592,0.373-0.806,0.63c-0.214,0.258-0.375,0.556-0.485,0.895 c-0.111,0.34-0.165,0.685-0.165,1.039c0,0.353,0.054,0.699,0.165,1.035c0.11,0.341,0.276,0.646,0.496,0.918 c0.222,0.273,0.493,0.489,0.817,0.652c0.324,0.162,0.699,0.241,1.126,0.241c0.426,0,0.804-0.079,1.126-0.241 c0.325-0.163,0.597-0.379,0.818-0.652c0.22-0.272,0.387-0.577,0.496-0.918C135.03,11.652,135.085,11.306,135.085,10.953z"></path> <path fill="#8F908F" d="M148.334,16.495v-6.006c0-0.309-0.026-0.604-0.078-0.883c-0.05-0.281-0.136-0.527-0.254-0.74 c-0.117-0.213-0.283-0.383-0.496-0.508c-0.214-0.126-0.482-0.188-0.807-0.188c-0.323,0-0.606,0.062-0.849,0.188 c-0.243,0.125-0.446,0.298-0.608,0.518c-0.162,0.222-0.284,0.477-0.365,0.762c-0.081,0.289-0.12,0.585-0.12,0.894v5.964h-3.644 V5.497h3.511v1.524h0.044c0.133-0.235,0.306-0.468,0.52-0.696c0.212-0.227,0.464-0.422,0.751-0.584 c0.286-0.161,0.6-0.295,0.938-0.396c0.337-0.104,0.698-0.156,1.083-0.156c0.734,0,1.36,0.133,1.875,0.397 c0.515,0.266,0.931,0.607,1.247,1.027c0.317,0.421,0.545,0.901,0.686,1.447c0.139,0.543,0.211,1.089,0.211,1.634v6.801H148.334z"></path> <path fill="#8F908F" d="M32.166,27.904c0,1.369-0.254,2.551-0.761,3.544c-0.509,0.994-1.179,1.812-2.01,2.451 c-0.833,0.641-1.771,1.112-2.815,1.413c-1.046,0.303-2.106,0.452-3.18,0.452h-5.83V20.133h5.652c1.104,0,2.193,0.128,3.268,0.385 c1.075,0.259,2.033,0.685,2.871,1.282c0.839,0.596,1.517,1.395,2.031,2.396C31.908,25.196,32.166,26.432,32.166,27.904z M28.236,27.904c0-0.883-0.145-1.616-0.432-2.196c-0.287-0.582-0.67-1.045-1.148-1.392c-0.478-0.347-1.023-0.593-1.633-0.74 c-0.61-0.147-1.241-0.221-1.889-0.221h-1.878v9.144h1.789c0.678,0,1.329-0.078,1.955-0.233c0.624-0.154,1.178-0.408,1.655-0.763 c0.479-0.352,0.861-0.823,1.148-1.411C28.092,29.502,28.236,28.773,28.236,27.904z"></path> <path fill="#8F908F" d="M44.73,30.4c0,0.146,0,0.295,0,0.441s-0.009,0.287-0.023,0.42h-7.971c0.03,0.309,0.122,0.588,0.276,0.839 c0.154,0.25,0.353,0.467,0.597,0.652c0.241,0.183,0.514,0.326,0.816,0.431c0.302,0.102,0.613,0.152,0.938,0.152 c0.573,0,1.061-0.105,1.458-0.319c0.396-0.212,0.721-0.49,0.971-0.829l2.518,1.592c-0.517,0.75-1.196,1.328-2.044,1.731 c-0.845,0.406-1.828,0.608-2.946,0.608c-0.824,0-1.605-0.129-2.342-0.385c-0.736-0.26-1.379-0.634-1.932-1.128 c-0.552-0.493-0.985-1.1-1.302-1.822c-0.317-0.721-0.477-1.545-0.477-2.473c0-0.898,0.156-1.711,0.465-2.44 c0.309-0.728,0.729-1.348,1.259-1.854c0.529-0.507,1.156-0.901,1.877-1.181s1.501-0.42,2.341-0.42 c0.809,0,1.552,0.138,2.229,0.409c0.679,0.271,1.259,0.666,1.746,1.181c0.485,0.515,0.864,1.141,1.137,1.877 C44.593,28.619,44.73,29.458,44.73,30.4z M41.396,29.009c0-0.573-0.182-1.067-0.541-1.48c-0.362-0.412-0.902-0.617-1.624-0.617 c-0.353,0-0.678,0.056-0.971,0.165c-0.295,0.11-0.554,0.263-0.773,0.452c-0.222,0.192-0.397,0.417-0.53,0.674 c-0.133,0.258-0.206,0.527-0.221,0.807H41.396z"></path> <path fill="#8F908F" d="M52.812,28.015c-0.295-0.278-0.642-0.515-1.039-0.706c-0.397-0.192-0.817-0.287-1.259-0.287 c-0.339,0-0.65,0.067-0.938,0.198c-0.287,0.134-0.431,0.361-0.431,0.685c0,0.311,0.157,0.531,0.475,0.663 c0.316,0.131,0.828,0.279,1.533,0.441c0.413,0.089,0.828,0.214,1.248,0.376s0.799,0.374,1.139,0.64 c0.337,0.266,0.609,0.59,0.815,0.972c0.208,0.383,0.31,0.84,0.31,1.368c0,0.693-0.141,1.277-0.42,1.757 c-0.279,0.478-0.645,0.864-1.092,1.159c-0.451,0.295-0.953,0.507-1.514,0.64c-0.559,0.132-1.118,0.199-1.678,0.199 c-0.897,0-1.777-0.144-2.639-0.431s-1.58-0.709-2.152-1.271l2.031-2.141c0.324,0.354,0.72,0.648,1.191,0.884 c0.471,0.235,0.973,0.353,1.502,0.353c0.295,0,0.585-0.068,0.872-0.209c0.288-0.139,0.431-0.387,0.431-0.74 c0-0.338-0.176-0.589-0.53-0.75c-0.353-0.162-0.905-0.332-1.655-0.509c-0.384-0.089-0.766-0.205-1.148-0.353 s-0.725-0.348-1.027-0.596c-0.302-0.251-0.548-0.56-0.739-0.928c-0.192-0.368-0.287-0.81-0.287-1.326 c0-0.662,0.14-1.225,0.421-1.688c0.277-0.463,0.64-0.844,1.081-1.137c0.441-0.295,0.93-0.512,1.468-0.652 c0.537-0.139,1.07-0.209,1.601-0.209c0.825,0,1.632,0.128,2.418,0.386c0.788,0.259,1.454,0.646,1.999,1.16L52.812,28.015z"></path> <path fill="#8F908F" d="M60.054,21.259c0,0.279-0.056,0.541-0.165,0.783c-0.11,0.243-0.258,0.452-0.441,0.63 c-0.185,0.177-0.406,0.317-0.663,0.418c-0.258,0.104-0.526,0.156-0.807,0.156c-0.588,0-1.081-0.195-1.479-0.587 c-0.398-0.388-0.597-0.855-0.597-1.4c0-0.265,0.052-0.52,0.154-0.763c0.104-0.242,0.25-0.452,0.442-0.629 c0.191-0.177,0.411-0.32,0.661-0.431c0.251-0.11,0.522-0.165,0.817-0.165c0.28,0,0.549,0.052,0.807,0.154 c0.257,0.103,0.479,0.243,0.663,0.42c0.184,0.177,0.331,0.385,0.441,0.629C59.998,20.718,60.054,20.979,60.054,21.259z M56.168,35.765V24.769h3.621v10.996H56.168z"></path> <path fill="#8F908F" d="M73.678,34.729c0,1.072-0.154,2.009-0.464,2.805c-0.309,0.794-0.744,1.453-1.303,1.975 c-0.56,0.522-1.24,0.914-2.042,1.172c-0.804,0.257-1.689,0.385-2.661,0.385s-1.969-0.146-2.992-0.441s-1.909-0.721-2.661-1.279 l1.811-2.585c0.531,0.472,1.115,0.82,1.756,1.05c0.641,0.228,1.27,0.342,1.889,0.342c1.06,0,1.844-0.279,2.352-0.84 c0.508-0.56,0.761-1.302,0.761-2.23v-0.663h-0.065c-0.339,0.443-0.794,0.798-1.368,1.062c-0.575,0.265-1.229,0.397-1.966,0.397 c-0.839,0-1.583-0.151-2.23-0.453c-0.647-0.3-1.197-0.709-1.645-1.226c-0.449-0.515-0.793-1.115-1.028-1.799 c-0.235-0.685-0.353-1.41-0.353-2.176c0-0.765,0.117-1.493,0.353-2.186c0.235-0.691,0.579-1.303,1.028-1.833 c0.447-0.529,0.997-0.951,1.645-1.269c0.647-0.318,1.384-0.476,2.207-0.476c0.692,0,1.355,0.139,1.989,0.42 c0.632,0.279,1.139,0.714,1.522,1.302h0.044v-1.413h3.423V34.729z M70.232,30.202c0-0.368-0.062-0.722-0.187-1.061 c-0.125-0.339-0.306-0.637-0.541-0.895c-0.236-0.257-0.516-0.459-0.84-0.606c-0.323-0.148-0.691-0.222-1.104-0.222 c-0.41,0-0.775,0.073-1.092,0.222c-0.317,0.147-0.585,0.347-0.807,0.596c-0.222,0.25-0.391,0.545-0.509,0.884 c-0.117,0.338-0.176,0.698-0.176,1.082c0,0.367,0.059,0.721,0.176,1.06c0.118,0.339,0.287,0.636,0.509,0.894 s0.489,0.463,0.807,0.618c0.316,0.154,0.682,0.232,1.092,0.232c0.413,0,0.784-0.078,1.117-0.232 c0.33-0.155,0.609-0.357,0.838-0.607c0.228-0.251,0.405-0.544,0.53-0.883C70.17,30.944,70.232,30.584,70.232,30.202z"></path> <path fill="#8F908F" d="M83.128,35.765v-6.006c0-0.309-0.025-0.602-0.077-0.883c-0.053-0.279-0.137-0.525-0.254-0.739 c-0.119-0.214-0.284-0.382-0.496-0.507c-0.214-0.126-0.483-0.189-0.807-0.189c-0.324,0-0.606,0.063-0.851,0.189 c-0.243,0.125-0.444,0.296-0.606,0.519c-0.162,0.221-0.284,0.474-0.364,0.761c-0.082,0.287-0.122,0.585-0.122,0.896v5.96h-3.645 V24.769h3.512v1.524h0.045c0.133-0.235,0.305-0.468,0.519-0.695c0.213-0.229,0.463-0.423,0.75-0.586 c0.289-0.162,0.599-0.294,0.938-0.397c0.339-0.103,0.699-0.154,1.083-0.154c0.735,0,1.36,0.133,1.877,0.398 c0.515,0.265,0.93,0.605,1.248,1.026c0.315,0.419,0.544,0.901,0.684,1.445c0.14,0.545,0.21,1.091,0.21,1.635v6.8H83.128z"></path> <path fill="#8F908F" d="M28.766,54.76c-1.016,0.464-2.186,0.696-3.512,0.696c-1.206,0-2.321-0.198-3.345-0.596 s-1.911-0.961-2.661-1.689c-0.751-0.729-1.339-1.601-1.767-2.618c-0.427-1.014-0.64-2.134-0.64-3.355 c0-1.251,0.217-2.384,0.651-3.4c0.435-1.016,1.034-1.88,1.8-2.595c0.766-0.713,1.663-1.262,2.694-1.644 c1.029-0.384,2.142-0.574,3.334-0.574c1.104,0,2.189,0.194,3.257,0.583c1.066,0.392,1.932,0.963,2.594,1.713l-2.561,2.562 c-0.354-0.486-0.816-0.847-1.392-1.082c-0.574-0.234-1.163-0.354-1.767-0.354c-0.663,0-1.27,0.122-1.822,0.363 c-0.552,0.244-1.026,0.579-1.424,1.005c-0.396,0.428-0.705,0.932-0.927,1.514c-0.22,0.582-0.332,1.217-0.332,1.909 c0,0.707,0.112,1.354,0.332,1.944c0.222,0.588,0.526,1.092,0.916,1.513c0.39,0.418,0.857,0.748,1.4,0.981 c0.546,0.237,1.143,0.354,1.79,0.354c0.75,0,1.406-0.147,1.967-0.441c0.559-0.295,1.006-0.677,1.346-1.147l2.627,2.473 C30.636,53.667,29.781,54.297,28.766,54.76z"></path> <path fill="#8F908F" d="M43.493,49.494c0,0.898-0.162,1.711-0.485,2.439c-0.324,0.73-0.766,1.348-1.324,1.854 c-0.56,0.509-1.209,0.902-1.943,1.183c-0.737,0.279-1.524,0.42-2.363,0.42c-0.824,0-1.607-0.141-2.352-0.42 c-0.744-0.28-1.392-0.674-1.943-1.183c-0.553-0.507-0.989-1.124-1.313-1.854c-0.323-0.729-0.485-1.541-0.485-2.439 c0-0.897,0.162-1.707,0.485-2.43c0.324-0.721,0.761-1.332,1.313-1.831c0.552-0.501,1.199-0.885,1.943-1.149 c0.744-0.266,1.527-0.396,2.352-0.396c0.839,0,1.626,0.131,2.363,0.396c0.734,0.265,1.384,0.648,1.943,1.149 c0.559,0.499,1,1.11,1.324,1.831C43.331,47.787,43.493,48.597,43.493,49.494z M40.005,49.494c0-0.353-0.059-0.697-0.178-1.037 c-0.117-0.339-0.285-0.638-0.507-0.895c-0.22-0.257-0.493-0.468-0.817-0.63c-0.323-0.161-0.699-0.244-1.126-0.244 c-0.426,0-0.803,0.083-1.125,0.244c-0.325,0.162-0.595,0.373-0.807,0.63c-0.214,0.257-0.376,0.556-0.485,0.895 c-0.112,0.34-0.165,0.685-0.165,1.037c0,0.354,0.053,0.698,0.165,1.037c0.109,0.34,0.276,0.645,0.496,0.917 c0.222,0.271,0.493,0.49,0.817,0.65c0.323,0.164,0.699,0.244,1.125,0.244c0.428,0,0.803-0.08,1.128-0.244 c0.322-0.16,0.596-0.379,0.817-0.65c0.22-0.272,0.385-0.577,0.496-0.917C39.949,50.192,40.005,49.848,40.005,49.494z"></path> <path fill="#8F908F" d="M49.015,53.095c0,0.617-0.218,1.133-0.652,1.544c-0.434,0.413-0.953,0.619-1.556,0.619 c-0.309,0-0.601-0.056-0.873-0.165c-0.273-0.111-0.512-0.262-0.718-0.454c-0.206-0.19-0.368-0.415-0.485-0.674 c-0.119-0.256-0.177-0.54-0.177-0.849c0-0.295,0.058-0.574,0.177-0.84c0.117-0.265,0.279-0.495,0.485-0.695 s0.444-0.355,0.718-0.475c0.272-0.118,0.564-0.178,0.873-0.178c0.603,0,1.122,0.208,1.556,0.619 C48.797,51.961,49.015,52.475,49.015,53.095z"></path> </g> <rect y="1.187" fill="#8F908F" width="13.047" height="2.61"></rect> <rect y="6.808" fill="#8F908F" width="13.047" height="2.61"></rect> <rect y="12.429" fill="#8F908F" width="13.047" height="2.608"></rect> </g> </svg> 