<?xml version="1.0" encoding="UTF-8"?> <!-- Generator: Adobe Illustrator 16.0.0, SVG Export Plug-In . SVG Version: 6.00 Build 0) --> <svg xmlns="http://www.w3.org/2000/svg" xmlns:xlink="http://www.w3.org/1999/xlink" id="Layer_1" x="0px" y="0px" width="120.691px" height="24.107px" viewBox="0 0 120.691 24.107" xml:space="preserve"> <g> <path id="XMLID_94_" fill="#8F908F" d="M9.162,24.107C0.897,24.088,0.019,18.725,0,16.434h4.371 c0.02,1.089,0.516,3.627,4.467,3.627c1.26,0,2.252-0.19,2.978-0.553c0.935-0.496,1.412-1.279,1.412-2.348 c0-1.681-1.45-2.177-3.817-2.787l-2.291-0.554c-3.492-0.878-6.795-1.698-6.795-6.757c0-0.993,0.21-2.902,1.508-4.486 C3.245,0.858,5.497,0,8.551,0c2.921,0,5.135,0.896,6.624,2.652c1.526,1.814,1.718,3.933,1.718,4.772H12.54 c-0.114-0.936-0.4-3.397-4.313-3.397c-0.954,0-1.832,0.21-2.462,0.592c-0.783,0.477-1.184,1.183-1.184,2.1 c0,1.775,1.374,2.119,2.214,2.328l5.173,1.375c2.921,0.764,5.612,2.042,5.612,6.165c0,2.958-1.165,5.077-3.513,6.337 C12.14,23.993,9.982,24.107,9.162,24.107"></path> <polyline id="XMLID_93_" fill="#8F908F" points="28.269,23.496 23.726,23.496 23.726,4.733 17.293,4.733 17.293,0.61 34.682,0.61 34.682,4.733 28.269,4.733 28.269,23.496 "></polyline> <polyline id="XMLID_92_" fill="#8F908F" points="101.126,23.496 84.883,23.496 84.863,0.592 100.611,0.592 100.611,4.752 89.33,4.752 89.33,9.448 99.694,9.448 99.694,13.59 89.33,13.59 89.33,19.354 101.126,19.354 101.126,23.496 "></polyline> <path id="XMLID_89_" fill="#8F908F" d="M45.753,23.496l-1.374-4.695h-7.788l-1.47,4.695H30.33L37.946,0.61h5.191l7.54,22.886 H45.753 M37.812,14.773h5.307l-2.615-8.914L37.812,14.773z"></path> <path id="XMLID_86_" fill="#8F908F" d="M56.194,23.496H51.67L51.65,0.61h9.773c4.104,0,6.662,2.825,6.662,7.349 c0,1.184-0.344,2.979-1.261,4.447c-1.202,1.909-3.072,2.883-5.573,2.883h-5.058V23.496 M56.194,11.242l4.084,0.02 c3.265,0,3.265-2.463,3.265-3.513c0-2.214-1.126-3.11-3.856-3.11h-3.492V11.242z"></path> <path id="XMLID_85_" fill="#8F908F" d="M69.078,20.957V4.219c0-2.33,1.946-4.219,4.371-4.219c2.291,0,4.085,1.584,4.409,3.817 l1.451,7.463l-4.162,0.802L73.621,4.18c0,0-0.02-0.096-0.114-0.096c-0.058,0.02-0.077,0.076-0.077,0.115l0.02,15.155h10.46v4.142 h-12.54C70.09,23.496,69.078,22.198,69.078,20.957"></path> <path id="XMLID_82_" fill="#8F908F" d="M118.61,0.896l0.669,0.02c0.419-0.02,0.609,0.152,0.609,0.496 c0,0.306-0.19,0.439-0.457,0.459l0.496,0.781h-0.286l-0.478-0.764h-0.286v0.764h-0.268V0.916 M118.878,1.68h0.286 c0.229,0,0.458-0.02,0.458-0.287c0-0.229-0.21-0.267-0.382-0.267h-0.362V1.68z"></path> <path id="XMLID_79_" fill="#8F908F" d="M120.691,1.775c0,0.82-0.668,1.507-1.508,1.507c-0.821,0-1.489-0.687-1.489-1.507 c0-0.821,0.668-1.489,1.489-1.489C120.023,0.286,120.691,0.954,120.691,1.775 M119.184,0.516c-0.688,0-1.26,0.572-1.26,1.26 c0,0.705,0.572,1.26,1.26,1.26c0.705,0,1.26-0.555,1.26-1.26C120.443,1.088,119.889,0.516,119.184,0.516z"></path> <path id="XMLID_78_" fill="#8F908F" d="M111.033,24.107c-8.246-0.02-9.144-5.383-9.144-7.674h4.352 c0.039,1.089,0.516,3.627,4.467,3.627c1.26,0,2.271-0.19,2.997-0.553c0.936-0.496,1.394-1.279,1.394-2.348 c0-1.681-1.432-2.177-3.817-2.787l-2.271-0.554c-3.493-0.878-6.796-1.698-6.796-6.757c0-0.993,0.191-2.902,1.509-4.486 C105.115,0.858,107.387,0,110.422,0c2.921,0,5.154,0.896,6.623,2.652c1.546,1.814,1.718,3.933,1.737,4.772h-4.371 c-0.096-0.936-0.401-3.397-4.313-3.397c-0.954,0-1.813,0.21-2.463,0.592c-0.782,0.477-1.183,1.183-1.183,2.1 c0,1.775,1.393,2.119,2.214,2.328l5.191,1.375c2.901,0.764,5.612,2.042,5.612,6.165c0,2.958-1.184,5.077-3.513,6.337 C114.01,23.993,111.873,24.107,111.033,24.107"></path> </g> </svg> 